<svg id="SVG" xmlns="http://www.w3.org/2000/svg" width="889.969" height="902.875" viewBox="0 0 889.969 902.875">
  <defs>
    <style>
      .cls-1, .cls-2, .cls-3 {
        fill: #169be0;
        stroke: #5cd7ff;
        stroke-linecap: round;
        stroke-linejoin: round;
        stroke-width: 2px;
        fill-rule: evenodd;
      }

      .cls-1 {
        fill-opacity: 0.3;
      }

      .cls-2 {
        fill-opacity: 0.5;
      }

      .cls-3 {
        fill-opacity: 0.9;
      }
    </style>
  </defs>
  <path id="形状_1_拷贝_17" data-name="形状 1 拷贝 17" class="cls-1" d="M996.423,688.837l-0.414.541-8.3-.541-2.9.541h-1.245v1.08H984.4v1.623h0.414v0.54H984.4V693.7h-0.831l0.417,2.162h-0.832v0.54h-1.657l-0.831-.54h-2.9v0.54h-2.074v-2.162h-0.828V693.7h-0.832v-1.082h-1.243V691.54l-2.488,1.081-2.074-.54,1.245-.541v-2.162l7.88-.541-0.414-14.6-0.831-.541v-4.327h-1.658l0.415-2.164h-0.415v-0.541h0.415l-0.415-5.411h2.072V660.71h1.245L977.344,658h-0.831L976.1,651.51l-0.829-.541v-9.2l-2.9.541v-2.165l0.829-.543v-1.083h3.317l2.9,1.083,1.658-.54v-6.5h0.831l-0.415,1.624h0.829l0.414,3.249h0.414v1.082h0.832v0.543h4.562v1.624h2.072v1.624l-0.414-.541v3.247h0.414l-0.414.542V646.1h3.319l-0.831-1.083,1.66-.541V646.1h0.414l0.414,0.541h0.415l-0.415,1.083h-0.414l-0.414-.542v0.542l0.828,1.082,1.246-.541h1.243l0.417,0.541-0.417,1.083-0.829,1.082-0.414,2.165V658h-2.074l-0.829-.541V658h0v-0.541h-1.245l0.414,8.658,0.415,6.491,2.488-.541h2.9v1.082h-1.245v0.541h0.414v3.246h1.66v0.541h0.824v0.54h-0.824V679.1l-2.074-.541V679.1h-0.829l0.829,6.49Z" transform="translate(-562.031 -24)"/>
  <path id="形状_1_拷贝_16" data-name="形状 1 拷贝 16" class="cls-1" d="M972.367,640.144v2.165l2.9-.541v9.2l0.829,0.541L976.513,658h0.831l0.414,2.706h-1.245v0.541h-2.072l0.415,5.411h-0.415V667.2h0.415l-0.415,2.164H976.1v4.327l0.831,0.541,0.414,14.6L956.605,691l-0.414-.541V688.3h-2.074v-1.082l-0.829-.54-3.32.54-3.317-.54-2.074,1.081v-3.786h0.414l0.415-3.244h0.417l-0.417-1.623h1.245l-0.414-.541v-3.244h4.977v-1.082h-0.829l0.414-2.705-0.831-.541,0.417-2.163-0.417-1.623v-5.952l-0.414-9.2h-1.243V651.51h-0.417l-0.828-1.082,2.074-1.083,2.488,0.542,0.415,0.541v-0.541l0.831,0.541,0.828-.541,1.243-.542,1.66,0.542,0.829-.542-0.414-1.623v-2.165l1.659-.542,0.415,1.083V648.8h2.074l4.562-2.165-0.414-10.827h4.148l0.415-2.707h5.391v2.165l-1.66.542v1.082l-0.829.542,0.415,1.082h-0.415Z" transform="translate(-562.031 -24)"/>
  <path id="形状_1_拷贝_15" data-name="形状 1 拷贝 15" class="cls-1" d="M918.033,675.317l-0.415,1.082h-0.831v-0.541H913.47l-2.488,1.082-0.829-.541h-0.417l-0.414.541h-0.415v1.081h-1.659v0.54l0.417,1.082-0.832-.541-0.414.541-1.243-.541h-0.417v3.246h-2.071v1.621h-1.66v2.7h-1.66l-0.828-1.082h-1.246l0.831,2.163-0.831-.541-0.829.541-0.414-1.081-0.831-1.622-2.489-2.163h-1.657l-2.488,1.08-4.563-.541-2.9-2.162-0.415.541-0.828-1.623-0.414.541-0.832-1.082-2.488-4.326-2.489-1.623-0.414-.541-0.415-3.246-2.488-1.622-1.245-2.164-1.243-3.788-0.829-1.082-4.562-1.623-0.417-.541v-2.165l-1.243-2.706-2.074,1.083-0.415-1.083-1.245-1.082v-0.541l-1.658-2.706,0.829-3.248h0.829l2.074-1.082-1.243-1.624,0.414-.543-1.245-2.165v-1.081l0.831,0.541,0.414-1.084h0.829l0.831-3.248v-0.541l-0.831-.542v-0.541l-1.657-1.083-1.246-5.415,2.074-2.167,7.051-1.083,2.9-1.083,1.246,0.541,2.9-2.707,1.658,2.707,0.831,1.083-0.414,1.083,0.414,0.543,1.66-.543,2.071-1.624,0.417,0.541,0.829,4.333,0.828,1.083,2.9-2.707,0.417-1.083v-2.709l2.074,1.625,1.243,1.084v2.166l-0.828,1.083,0.414,1.624-0.414,1.625,0.414,1.083,0.828,1.083H889v1.624l2.489,1.625,1.657,0.54,0.416,2.167,1.658,1.081,1.659,2.708,1.246,1.082,0.415,1.083,0.828,0.541v1.082h1.246v1.624h-1.246l0.414,2.706h-0.414l0.414,0.541v0.541H898.54V655.3l1.242,1.082h-0.828l-0.414,1.082h0L899.782,658l-0.414.542-3.317.541v1.082h-0.414v3.247h0.828l0.829,1.082,2.9-1.082v0.541h4.563l1.66,0.541h2.074v-0.541l0.414-1.083,3.735,0.542,0.414-1.083,2.074-.541v0.541l-0.415.541,0.83,1.083h-1.661v1.082h1.661l-0.415,10.278h2.9Z" transform="translate(-562.031 -24)"/>
  <path id="形状_1_拷贝_14" data-name="形状 1 拷贝 14" class="cls-1" d="M1035,715.321l0.41,0.541h1.66v1.081l-1.25.539-0.41.541,0.41,2.16,0.84,0.541,0.82,1.62,0.42,4.322v0.54l-1.66.54v1.08H1035l0.41,1.081,0.83,1.081-1.66.539,0.83,1.081-2.07,1.079,0.83,0.541-0.83.54,0.83,0.539v1.081l2.07,2.7-2.9,1.621,2.07,4.859,2.9-.54h-0.41l1.24-.541,0.42,1.62-3.74.541v1.079h1.25l0.41,2.7-5.39-.539-1.24-2.7-0.83-1.08-0.83,1.62,1.66,2.16-0.83,4.318v2.7l3.73,0.54-1.66,2.7,2.08,0.539v0.54l1.65,0.539,1.25-.539v1.619h-0.41l-0.42.539-2.07-1.079-0.42.54V767.7l2.49,1.079-0.42,3.778L1035,774.17l-2.08-1.08-1.24,1.619,2.49,1.079-0.83,1.08,2.07,1.078,4.56-2.158,11.62,0.54v2.7l2.48-.54,0.42-1.079h0.41l3.74-.538v1.078l4.97-.54,0.83-1.078,0.42-2.158,1.66-.54v-1.078l1.66-.54v-1.079h0.83v1.079h0.41l0.42-1.619,2.07-.539v-1.08h2.9l1.25,1.619v1.079l2.48-.539,0.42,3.776,2.9,4.316h1.25l2.07,0.54v2.7h-2.07l0.41,1.617h-1.24l0.41,3.237h2.08l-0.42,3.775,1.25,1.077h1.66v-1.617h2.07v1.617l1.66-.539,1.24,1.618-0.41,1.617-0.83,1.08v1.616h0.83v1.079h0.83l0.41-.54,1.66-.539h1.66l0.83,0.539,1.66-.539,0.41-.539h2.91l0.41,0.539V797.9l2.07,0.54h2.08l0.41,3.774-0.83,4.851v4.85l1.25,2.157,0.41,2.156,1.66,2.154V817.3h0.83l4.57,0.54,0.41,2.154h-0.83v2.157h0.42l-0.84,1.078,1.66,1.616v1.076l-1.24.54v1.077h-2.49l-0.41,1.078-2.08,1.077-0.83-1.077-1.24.538v-1.616l-2.07.538,0.82,3.771h0.42l0.41,1.616h-0.83l1.66,1.617h1.25l1.66,1.077,0.41,1.616h0.42v-0.54l0.83,0.54h0.41v1.076l1.24,0.539h-1.24l1.66,0.538v0.54h0.83l0.41,1.615-0.41-1.615,0.83,1.615v-1.615h0l0.41,2.692-0.83.538-0.41-1.615h-0.41l0.41,1.615-0.41-.538V843.7l-1.25.538,0.41,0.54h-0.41l-0.83-.54-1.24.54v0.538l-1.66.539h-2.49l-1.25-.539-0.41-1.078h-0.41l-0.84-2.153h-0.82l-1.25-3.77-2.07,2.155v-1.078h-1.66v0.538l-0.83.54-0.42-1.617h-0.41v0.539h-0.42v-0.539l-4.14-1.076V836.7h-3.32l-0.41.538-1.66.54h-0.42l0.42,1.076-1.25.539-0.41.538v-0.538h-1.66v-2.155h-0.42l0.42,2.155-1.25.538-0.41-1.615h-1.25l-0.41-1.616v0.538l-1.66.54V836.7h-1.24v2.693l-2.91.538v-0.538l-2.07-.539v-0.538h-1.25v-2.693h-1.65V831.85h-1.66l-0.42-2.693-1.66-.538v-2.7h-2.49V827h-1.24l0.42,1.617-1.66.538h0.41l-0.83.539v-0.539h-0.83l-0.41-1.616,0.41,1.078-0.41-1.078-1.25,1.078-0.41-1.078-2.49-1.077h-1.25v2.155l-4.56-.54v0.54h-1.24v2.154h0.83v1.077h0.41v0.54l0.42,0.538-1.66.538,0.83,1.617h-0.83l0.41,1.615h-0.41l0.41,0.538-2.07.54v0.538l-2.08.538v0.539l-1.66.538,0.42,0.54-2.07.538v0.538h-2.08l-0.41-1.616h0.83v-1.077l-0.42-1.616-0.83.54,0.42,0.538-1.25.538,0.42,0.539h0l0.41,1.616h-0.41v2.154l-0.42-.539-2.07-.538v-0.539l-2.07-.538v-1.078h-1.25v1.078l-1.24.538v1.077l-1.25.539,0.42,1.616h-0.83l0.41,2.153h0.42v1.615l-0.42.538-0.83.539v2.155h2.49l0.83,2.691-3.32.538,0.42,1.077h-1.25l0.42,1.615-3.32.537,0.42,1.615h-0.83v1.615h-0.83v2.154h-0.42l0.42,2.69-2.08.539-1.24-.539-2.08.539v0.538h-0.82v-0.538h-1.66v-1.614l-3.32.537v-0.537h-3.73V864.7h-0.83l0.83,2.69h0.82l0.42,0.538-0.42.538v1.076h0.42l0.83,1.076,0.41,2.153-1.24.538,0.83,1.615-0.42.537V874.92h-2.07v0.537h-1.24l-0.42.538v1.077h-1.66v2.152l-2.07.537v-1.075h-2.49v1.075h-5.393l-1.657.539,0.415,1.613h0.828l0.414,1.614-0.828.538,0.414,1.614h1.246v1.613l0.414,1.615-4.563,1.613-0.414-1.613-3.32.538-0.414-3.766,0.831-.539V884.6h-0.417v-2.69H987.3l-0.414-1.075h-4.149V880.3h-2.9l0.829-.539-0.414-.537h-1.66L979,880.838v5.916l1.243,0.538v0.539h0.829l-0.415,1.076h0.831v1.075h2.072l0.417,1.614,1.657-.539,2.074,5.379h-1.66l-0.828.538-0.829,4.3-0.831-.538v1.075l-0.829.538,0.414,0.537h-0.414l0.414,1.614,4.149-1.075,2.074-2.151,1.243,3.763h-1.243V904.5l-0.829.537v1.076h0.829l0.414,1.613H990.2v-0.538l2.074-.537-0.415-.538h0.829l-0.414-1.076h0.414V904.5H993.1v-0.538h1.245l0.414,0.538h1.66v2.151h0.829l-0.829-.538h1.243l0.831,1.613v3.225h-0.414l0.414,2.688,2.073,4.3,1.24-.538v1.075l-0.82,1.613h-0.84l-0.824.537v2.149l-2.489.539v0.537h-1.245v0.537H993.52L992.275,926l-4.149-2.149-4.562-1.076-2.072-1.074-3.734.537-1.659-1.075-1.658-.537-1.66,1.075-6.222-.538h-2.488v-0.537H962v-1.613l-0.414.539-4.562-.539-0.415,1.613-2.074-.537-0.414-1.076h-1.243l-2.075-.537-3.319-2.149-1.243-1.613-0.414-1.612-1.66-1.075-0.415-1.076V909.34l-2.488-2.151-0.414-2.151-2.491-2.151v-1.075l-0.829-1.612h-1.243l-4.148-1.076-2.9-.538-0.417-.537,0.417-.538H928.4l-0.414,2.15h-1.244l-1.659-2.687h-2.9l-3.32-2.151-1.243-.539L917.2,891.6l-0.831-1.614-0.828-1.075-3.318-2.69-0.417-1.077,0.832-1.613-1.246-1.075v-1.076l1.246-.538v-1.077l0.828-1.614-0.414-.538-0.829.538L912.642,876H911.81l0.417-1.075,0.415-2.153L911.81,869v-0.539l-0.414-1.076,0.831-.538-1.245-1.614,1.245-1.077,0.415-1.077-0.415-.538h-1.245l-0.829-3.23h-2.488l0.828-1.614v-1.077l-3.317,1.614h-0.417l-0.828-1.075-2.075-5.923,1.661-3.23,0.414-3.77-1.66-1.615,0.417-1.615-0.417-1.078-0.415-1.077-1.242-3.769V831.85l0.414-3.231-0.414-1.078,0.414-3.771-1.66-8.083,0.828-2.7v-2.155l2.492-5.929-0.832-3.235,2.075-2.7-0.414-1.078-1.661-1.078v-0.539l4.149-7.549,0.828-3.236v-1.618l0.832-2.157-0.832-.54-0.414-.539,1.66-2.158,0.414-1.079,1.243-1.078,2.074-2.158,0.832-2.158-0.415-1.079,1.243-2.159-0.414-1.079,0.414-1.079-0.828-1.078v-1.619l-1.246-2.7,0.414-1.079,1.246-.54,0.414-1.621,1.66-1.079,0.415-2.7-0.415-2.16,0.829-2.7-0.829-4.86,0.415-1.618-0.415-1.081,0.415-1.079-0.83-2.16v-5.94l2.072-.541v-1.62h1.246l0.828,1.08,0.415,1.62h0.831l4.148-2.7,5.806-1.081,0.828,2.161,2.074-1.08,0.832,1.08-2.074,1.081,0.414,1.62,1.243-.541H933.8l-0.417.541,1.66,5.4h-0.415l0.829,1.62h0.831l0.415,1.08-0.832.541,0.832,1.079,0.828,0.539,0.829,1.081h1.66v-1.081l2.9-6.478h1.66v-4.321l0.414-2.16v-1.62h1.66l0.829-1.62,4.977-.541,0.417-2.7h2.488l-0.417.541,4.149,0.539,0.414,2.7h4.148l0.829,3.241h-1.243l0.829,2.161v3.239h1.245v-0.539h3.317l0.415,3.24,2.488,0.54v-0.54l2.488-.541,0.417,8.64,2.9-.541-0.414-8.1-0.417-2.16H976.1v-1.079l10.37-.541v-1.079h0.415v-2.7h2.488v0.541l0.829-.541v-4.861h-2.075v-1.081h0.417v-1.08h-0.417v-0.54l-0.828-1.08h-1.246v1.08h-0.414l-0.414-1.08-0.829-1.62-2.074,1.08h-0.414l0.414-3.242h0.828v0.54l0.415,0.541v-0.541l1.245,0.541h1.243l-0.414-2.161h0.414v-0.54l-0.414-.541V716.4l-1.657-1.081,0.414-2.7,2.074,1.621h0.415v-1.621h1.659v-1.081h2.072v0.541h2.9V713.7h1.657l0.415-1.082,1.66,1.621-0.829.541-0.414,1.621,0.414,1.08,3.727-1.08,0.42,0.541V716.4l3.73,3.241,0.42,1.621,2.49-.54,2.07,2.7,4.56-1.62,0.42-2.162h1.66v-1.08h1.24v-1.081l0.42,1.081h0.82v1.62l0.83-.54,0.42,0.54,1.66-.54V719.1h1.24l-0.41-.541h-0.83l2.9-1.62v-1.081h0.83l-0.41-2.161h1.24l0.41-1.622,4.57,0.54V713.7l2.9,0.539Z" transform="translate(-562.031 -24)"/>
  <path id="形状_1_拷贝_13" data-name="形状 1 拷贝 13" class="cls-2" d="M830.931,703.432l2.906,2.162,2.9,0.54,1.243,1.082,2.488,1.08,0.417,1.622V711l0.414,0.539,0.829-.539h0.414l0.831,2.161h0.415v-1.622l0.414-.539,1.66,1.62v1.621h-0.417l0.417,4.864h-0.417l0.417,1.079-0.831.541-0.414,2.161,0.414,3.781,0.414,1.08v1.62h0.417v1.081l-0.417,1.08,0.417,1.081-0.417.539,0.831,3.241-0.414,2.16h0.414l0.415-1.081,0.414,1.62h2.074l0.415-1.079-0.415-.541h0.829l0.417-.539,0.414,1.62v-1.62l0.828,0.539,1.66-.539-0.414-1.621h2.9l0.414,0.54,0.414-1.619,0.832,0.54h1.243v2.16l0.414,0.539h0.414v-0.539l0.417,0.539h2.072l0.417,0.541H863.7l-0.414,1.079,1.66,0.54-1.246.541v0.54h-1.242v0.539l-0.417-.539v0.539H861.21l-0.414.54h-0.415v-0.54l-0.414-.539h-0.831l-1.243,3.239v0.539h0.829v-0.539h0.414v1.62l-0.414-.54h-0.415l-0.414.54,0.829,1.08-0.415,1.079,0.829,0.541,0.414,2.158h0.417v-2.158h0.414l0.415,1.619h1.66v-0.54h0.828l1.243-1.62h1.66l0.414-.54h0.417l-0.417,1.081,0.417,0.539,0.829-1.08,0.828,1.08,0.832-1.08h0.828v-0.54l-0.414-.539,0.414-.541,0.415,1.08H872v0.54l2.489-.54,0.414-.539,0.828,0.539,0.832-1.619,0.414,0.539,1.657-3.238,0.832-4.32,0.414-1.081h3.317l2.488,0.541-0.414,1.079H886.1l-0.417,1.081h1.66l0.414-1.081,1.246,0.54h1.657v1.081l2.489,0.539,0.416-4.319v-7.562l0.415-.54,0.414-1.08,1.246-.54v-1.081l0.828-.539-0.414-2.7,1.243-.541,2.488-2.7-0.828-1.62v-2.7h5.391l0.831-.54-0.417-1.08h0.417l5.391,0.539,0.415,1.081,0.828,3.783,3.32,3.24,0.415,2.7v1.08l-1.246,2.162,0.831,2.7-0.415,2.159v5.4l0.83,1.62-0.415,1.619,0.415,1.081-0.415,1.618,0.829,4.86-0.829,2.7,0.415,2.16-0.415,2.7-1.66,1.079-0.414,1.621-1.246.54-0.414,1.079,1.246,2.7v1.619l0.828,1.078-0.414,1.079,0.414,1.079-1.243,2.159,0.415,1.079-0.832,2.158-2.074,2.158-1.243,1.078-0.414,1.079-1.66,2.158,0.414,0.539,0.832,0.54-0.832,2.157V785.5l-0.828,3.236-4.149,7.549v0.539l1.661,1.078,0.414,1.078-2.075,2.7,0.832,3.235-2.492,5.929v2.155l-0.828,2.7,1.66,8.083-0.414,3.771,0.414,1.078-0.414,3.231v3.233l1.242,3.769,0.415,1.077,0.417,1.078-0.417,1.615,1.66,1.615-0.414,3.77-1.661,3.23-5.391.54-0.414-2.155h-0.414v-1.077h-1.246v-2.691l-0.829-.539v1.615h-0.416v-1.615l-0.415,1.615h0v-1.615h-0.414v1.615h-0.828v-1.615h-1.246v1.077H889v-1.077h-2.488v-1.078l-3.32.54v2.691h-2.074l-2.9,1.077h-2.074v-0.538l-2.489.538,0.415-1.077-0.829-.538-0.829,1.615v2.692H872v1.078h-0.417v2.153H870.75v0.538h-0.415v-2.153h-0.414l-0.831,2.153-0.415.539-1.657-.539-0.417,1.615h-2.074l-1.243.539v-1.077l-3.734-.538v-2.153l-2.071.538-1.246,1.615h-3.317v-2.692l-2.074-2.154,0.414,2.154-1.245-1.076v1.615l-26.545,1.614-1.657-.538v-1.076l-0.831-.539h-0.829l-0.414.539-1.246-.539,0.415-1.616h-0.415l0.831-3.769H818.9v-1.076l-2.074.538-2.072-1.076h-0.831l-0.415,2.153h0.415v0.538h-1.658l-0.416,2.692-0.829.54-1.243.538v-0.538h-2.074l-1.66.538,0.414-3.77h-1.242l-0.832-1.615h-0.414l0.414-2.153h-0.414v-2.155l-1.66.539v-1.077l-2.488.538-0.415-1.077-0.828.539v2.153h-0.415v4.846h0.415V850.7l-0.832,1.616,0.832,1.615L799,854.468H797.75v1.615h-0.414l-0.414-.538h-2.074l-0.415,1.076h-0.414v2.153l-1.66-.539v1.077H790.7v1.615h-0.831v-1.615h-1.243v-1.077h-1.66l-0.414-1.614h-0.415V853.93l-0.416.538-0.829-1.076h-1.243v-1.615h-2.074v-2.155h-1.246l-0.414-3.768-0.829.538v-1.077l-0.831-.538v-1.616l-2.488-.539-0.415-.538v-1.077l-2.488-.538-0.828-.54h-1.246l-0.829-1.077-0.414,3.232-0.832.538v0.539l-0.414,1.616,1.246,1.077-0.417,2.153,2.906,0.538-0.832,1.077h0.417l-0.417,1.615-1.243,2.693,0.829,0.538-0.829,1.615h0.414l-0.828.538h-1.66l0.828,0.539V857.7l-1.657-.538-0.416.538-0.415-.538,0.415-.539h-0.829v-0.538l-0.829.538-1.245-.538-2.489.538,0.415,2.691,0.416-.538v1.076l0.415,0.539v3.23h-2.489l0.829,0.538h-0.414l-0.415.539h0.829l-0.829,2.152-1.66-.539v1.615l-4.148-.538v1.076h-0.414V869H751.3l-0.415-2.153-1.66,1.076-2.488-3.767V864.7h-1.243v1.075h-0.831v1.077l-1.657-.539v0.539l-0.417,3.766h-0.829l-0.829,1.077h-5.808v3.229l-1.66.537-0.828,2.152h-1.66l0.417,3.229h0.414l0.414,1.075h-0.828l1.657,0.539,0.414,1.613-2.071.538,0.414,0.537h0l0.414,1.614h0.829v1.077l1.246-1.077,1.242,0.538v1.076h-0.828v0.539l1.245,0.538-0.831,1.075-3.317-1.075h-2.488l-4.149-1.077,0.415,0.539,0.831,0.538v0.537h-1.246l0.415-1.075-5.806-.539-2.488.539-3.734-2.153-0.415.538-2.074-1.075-2.074-.538,0.831,1.075-0.417.538,1.246,1.076-0.829,1.077h0l-1.245-1.614-0.415-1.614h-1.245l-1.243.537-0.831-1.075-0.829.538v0.537l-0.414,1.077h-0.829v-0.539h0v-1.075l-0.417-.538V885.14l-1.242-1.075h0.414l-0.414-1.075-1.246-1.077-0.415-1.075-1.242-6.456-1.66-1.615h0.414l0.414-.537-0.828-1.616-0.415-.538h0.829V869h-0.829v0.537l-2.074-1.076V869l-0.828-.539L692.4,869l-0.415-1.077h-1.243l0.829,0.538,0.414,2.152-1.243-.538h-0.417v0.538H689.5l0.828-.538h-0.414l-0.414-1.614v-2.153h-0.414l1.242-.538-2.071-1.075v-0.539h0.829l-1.246-2.692,0.417-.538h-0.831l0.414,0.538H687.01v-0.538l-2.074-1.077-0.829,1.077-0.831-.538h-0.829l0.415-.539h-2.9l-1.66-.538-1.242-1.077,1.242-.537v-1.615l0.831-.538,1.244,0.538-0.415-.538v-2.153h0l0.415-1.077-1.244-.538h0.415V850.7l-1.246.538V850.7l-0.414-.539,0.414-2.153V846.93l-0.414-.538-2.074-3.231v-3.232l-1.657-2.693-3.734-1.615-2.074-1.616-1.66-3.232-0.415.539,0.415,1.078-0.415.538,0.415,1.077-0.829,2.155-2.9,2.154-0.414,1.077h-1.66v-0.539h-1.66l-0.828,1.077h-2.074l-0.415-2.153-2.074-.54-1.243.54L653,838.852l-0.832,1.077,0.417,0.54h-0.831l-2.9-.54-1.245-2.153-1.658-.54-2.488,1.616-2.074.539-3.318-.539-0.831,1.077,0.416,0.54-2.9,1.076-1.658,1.077-0.83,2.693-1.245-.538-1.658.538-3.318-1.078,0.414-1.615,0.415-1.077-2.489-1.616-0.829-2.153h0l-1.244-2.155-3.319-1.078-1.244-2.693-2.488-2.693h-0.416l-2.488,1.078-2.489,2.155v2.153l-1.244,1.617-0.414.538,0.414,1.078-2.9,2.153-2.488,1.078v0.538l0.414,1.077v0.539l-0.83,1.076h-1.244l0.415-1.615L600.74,836.7v-2.693l0.829-2.155,2.074-2.154,1.659-1.617L604.887,827v-2.694l-0.83-.538,0.83-.538-0.414-1.078-0.416-1.078,0.83-1.617-0.414-1.078,0.414-1.078-2.488-.538v-1.078l-2.074-.538-0.829-2.7-1.244-1.617L594.1,810.3l-0.415.539-0.415,1.617h-0.415l-2.9-.54-1.244-1.077-2.074,1.077-0.415-1.077v-1.078l0.415-.539,0.414-2.156,0.831-1.078,0.414-1.078,3.732-3.773V800.6l-2.073-1.618,0.415-.538v-1.618l0.83-.539-0.416-.538v-1.08l1.244-.538,0.83-1.079-0.414-.539,0.414-.54H594.1v-0.539l0.829-.538-0.829-.54h0.414l0.83-.54,0.414-.539-1.244-1.078,0.83-1.078-0.415-1.079-0.829-.54-1.659-2.158H591.2l1.244-2.157,0.414-1.617-0.83-3.237-0.414-3.238-0.414-2.157,0.414-1.619-1.244-1.619,0.414-1.619,1.66-1.618V762.84H591.2l-1.66-1.619-1.658-.54h-4.977l-1.245,1.619L580,760.142h-1.244l-1.244-.54-2.074-2.16H574.2l-1.659-1.079-2.488-1.08-1.66-3.239v-1.619l-0.829-1.619,0.414-3.239-1.658-1.081-1.66,1.081-0.828-2.16,2.488-1.08,1.244-3.24,4.147-2.159,3.733,2.159,2.488-.539,7.467-4.861,1.244-2.7,1.659-1.081,3.318,1.62,0.83-.539v1.079l1.244,0.541,0.829,1.079,1.244,1.081,2.074,2.7,0.83,0.541h0.415l2.9-2.7,9.125-2.16h0.415l0.829-1.08,1.66-.54,3.318,0.54,1.658-.54v-0.539l2.075-2.162,0.828-1.62,2.074-1.081-0.414-2.7,1.244-1.62h3.733l4.563-.541,1.244-2.7,2.074-1.62,1.244-4.324,2.487-2.7v-0.541l-0.414-.541,0.831-1.62,2.9-2.163,1.657-8.107,2.075-2.7,0.831-2.162,2.074-1.623,1.243-1.08h3.734l2.071-2.164h1.66l2.488-3.786,5.392-1.08,1.66-1.082h2.9l1.246-1.082,0.414-2.7,2.9-1.623,1.246-2.164,3.317-1.623h2.488l1.66-1.082h4.148l0.829-1.082,4.148-.54,7.466-4.328,0.414-1.082,4.977-2.165,0.831-1.082,2.488-1.082,1.243,2.164,0.829,0.541h7.882l2.074-1.082,1.657,0.541L726,662.874l1.66,3.247h3.317l3.32,1.623,3.731,5.95,1.246-.541,0.828,0.541,2.074,1.623,2.074-.541,1.66-1.082,2.9-.541,3.317-2.705,0.831-1.081,1.243-2.7,2.074-1.623,4.977-1.082,5.808,2.164,3.317-.541,0.829,0.541h2.074l4.148-.541,3.317-1.623h2.075l2.074,3.787-0.829,3.245,0.415,1.623-3.735,2.164-2.488,3.245-3.317,3.786-0.414.541,1.657,3.785,0.831,0.541,6.637,2.163h1.657l1.246,0.541,0.828,2.162,1.246,0.541,2.9-.541,2.9-2.162h0.829l-0.414,1.08-0.415,1.082,3.734-.541h0l-0.417-1.082,5.809-3.243,3.317,0.54-1.243,3.244L804.8,691.54l-2.488,1.622,0.417,2.7-0.417,1.622-1.243,4.323,2.074,2.163v2.7h1.243l7.051-4.865,0.831-.54,2.9,0.54,0.415,2.163v2.161L816,706.675l2.9-.541,0.831-1.081h1.243l0.831-1.621,1.657,1.082,2.074-.541v-0.541l1.66-.54Z" transform="translate(-562.031 -24)"/>
  <path id="形状_1_拷贝_12" data-name="形状 1 拷贝 12" class="cls-1" d="M879.046,679.643l0.415,1.082,0.414-.541,0.828,1.623,0.415-.541,3.733,2.162,4.563,0.541,1.66-1.08h1.657l2.489,2.163,0.831,1.622,0.414,1.081,0.829-.541,0.831,0.541-0.831-2.163h1.246l0.828,1.082h1.66v-2.7h1.66v-1.621h2.071V679.1h0.417l1.243,0.541,0.414-.541,0.832,0.541-0.417-1.082v-0.54h1.659V676.94h0.415l0.414-.541h0.417l0.829,0.541,2.488-1.082h3.317V676.4h0.831l0.415-1.082h15.345v5.408l0.417,0.541,1.243-1.623,1.66-.541v0.541l-0.415-1.082h1.657l0.415-.54-1.243-.54,1.243-1.082,2.074-.541,0.417-.541h5.391v3.244l0.414,0.541h-1.245l0.417,1.623h-0.417l-0.415,3.244h-0.414v3.786l2.074-1.081,3.317,0.54,3.32-.54,0.829,0.54V688.3h2.074v2.162L956.605,691l12.859-1.621v2.162l-1.245.541,2.074,0.54,2.488-1.081v1.081h1.243V693.7h0.832v0.54h0.828v2.162h2.074v-0.54h2.9l0.831,0.54h1.657v-0.54h0.832l-0.417-2.162H984.4v-1.082h0.414v-0.54H984.4v-1.623h-0.831v-1.08h1.245l2.9-.541,8.3,0.541,0.414-.541h0.414v1.08h-0.828v2.7h0.414v0.541h0.414v1.081l0.829,1.081v-1.081h0.417V693.7l2.907,2.162h0.82v-0.541l1.66,1.622v-0.541h0.42v0.541l0.83,1.082h2.07l-0.41,1.621h-0.83v0.54h-0.83v1.081l-0.83-.54-0.42,1.621-0.83-.541-0.41-1.08-0.42.54-1.24-1.081h-1.244l0.414,1.081h-0.414v0.54l-2.074.541,0.414,2.163h-1.243v1.08h-0.414l0.414-.541h-0.831v1.081l-0.415,1.082h-0.828l-0.829-1.082-0.416,1.082h0.416l-0.416.539-1.244.541-0.414,2.7h-2.9v1.62h-1.659v1.621h-0.415l-2.074-1.621-0.414,2.7,1.657,1.081v1.08l0.414,0.541v0.54h-0.414l0.414,2.161h-1.243l-1.245-.541v0.541l-0.415-.541v-0.54h-0.828l-0.414,3.242h0.414l2.074-1.08,0.829,1.62,0.414,1.08h0.414v-1.08H987.3l0.828,1.08v0.54h0.417v1.08h-0.417v1.081H990.2v4.861l-0.829.541v-0.541h-2.488v2.7h-0.415v1.079l-10.37.541v1.079h0.414l0.417,2.16,0.414,8.1-2.9.541-0.417-8.64-2.488.541v0.54l-2.488-.54-0.415-3.24h-3.317v0.539h-1.245v-3.239l-0.829-2.161h1.243l-0.829-3.241h-4.148l-0.414-2.7-4.149-.539,0.417-.541h-2.488l-0.417,2.7-4.977.541-0.829,1.62h-1.66v1.62l-0.414,2.16v4.321h-1.66l-2.9,6.478v1.081h-1.66l-0.829-1.081-0.828-.539-0.832-1.079,0.832-.541-0.415-1.08h-0.831l-2.074-7.019,0.417-.541h-0.417l-1.243.541-0.414-1.62,2.074-1.081-0.832-1.08-2.074,1.08-0.828-2.161-5.806,1.081-4.148,2.7h-0.831l-0.415-1.62-0.828-1.08h-1.246v1.62l-2.072.541,0.415-1.62-0.415-3.242,0.83-1.621v-1.08l-0.415-2.7-3.32-3.781-0.828-3.782-1.246-.541-4.56-.539h-0.417l0.417,1.08-0.831.54h-5.391v2.7l0.828,1.62-2.488,2.7-1.243.541,0.414,2.7-0.828.539v1.081l-1.246.54-0.414,1.08-0.415.54v7.562l-0.416,4.319-2.489-.539v-1.081H889l-1.246-.54-0.414,1.081h-1.66l0.417-1.081h-0.831l0.414-1.079-2.488-.541h-3.317l-0.414,1.081-0.832,4.32-1.657,3.238-0.414-.539-0.832,1.619-0.828-.539-0.414.539-2.489.54v-0.54H870.75l-0.415-1.08-0.414.541,0.414,0.539v0.54h-0.828l-0.832,1.08-0.828-1.08-0.829,1.08-0.417-.539,0.417-1.081H866.6l-0.414.54h-1.66l-1.243,1.62h-0.828v0.54H860.8l-0.415-1.619h-0.414v2.158H859.55l-0.414-2.158-0.829-.541,0.415-1.079-0.829-1.08,0.414-.54h0.415l0.414,0.54v-1.62h-0.414v0.539h-0.829v-0.539l1.243-3.239h0.831l0.414,0.539v0.54H860.8l0.414-.54h0.829v-0.539l0.417,0.539v-0.539H863.7v-0.54l1.246-.541-1.66-.54,0.414-1.079h-1.242l-0.417-.541h-2.072l-0.417-.539v0.539h-0.414l-0.414-.539v-2.16h-1.243l-0.832-.54-0.414,1.619-0.414-.54h-2.9l0.414,1.621-1.66.539-0.828-.539v1.62l-0.414-1.62-0.417.539h-0.829l0.415,0.541-0.415,1.079h-2.074l-0.414-1.62-0.415,1.081h-0.414l0.414-2.16-0.831-3.241,0.417-.539-0.417-1.081,0.417-1.08v-1.081h-0.417v-1.62l-0.414-1.08-0.414-3.781,0.414-2.161,0.831-.541-0.417-1.079h0.417l-0.417-4.864h0.417v-1.621l-1.66-1.62-0.414.539v1.622h-0.415L842.545,711h-0.414l-0.829.539L840.888,711v-1.081l-0.417-1.622-2.488-1.08-1.243-1.082-2.9-.54-2.906-2.162,0.832-1.622v-1.08l1.657-1.081,0.831,0.54,3.732-1.081-0.415-3.784-1.243-2.7L837.983,691l3.319-1.082,3.732,2.7,1.66-.54L848.768,691l2.488,0.541,0.829-.541v-1.082l0.414-1.08,2.9-.541,3.318-2.163,2.488-.541,2.488-1.623,4.149-1.621,2.9-.541L872,682.348l1.243-1.082v-1.623h0.829l3.319,1.082Z" transform="translate(-562.031 -24)"/>
  <path id="形状_1_拷贝_11" data-name="形状 1 拷贝 11" class="cls-1" d="M879.046,679.643l-1.66,1.082-3.319-1.082h-0.829v1.623L872,682.348l-1.245-.541-2.9.541-4.149,1.621-2.488,1.623-2.488.541L855.4,688.3l-2.9.541-0.414,1.08V691l-0.829.541L848.768,691l-2.074,1.082-1.66.54-3.732-2.7L837.983,691l-1.658,1.622,1.243,2.7,0.415,3.784-3.732,1.081-0.831-.54-1.657,1.081v1.08l-0.832,1.622h-1.657l-2.074-.54-1.66.54v0.541l-2.074.541-1.657-1.082-0.831,1.621h-1.243l-0.831,1.081-2.9.541-0.414-.541v-2.161l-0.415-2.163-2.9-.54-8.3,5.4-0.829-.541v-2.161l-2.074-2.163,1.243-4.323,0.417-1.622-0.417-2.7,2.488-1.622,0.832-1.082,1.243-3.244-3.317-.54-5.809,3.243L798.167,691h0l-3.734.541,0.415-1.082,0.414-1.08h-0.829l-2.9,2.162-2.9.541-1.246-.541-0.828-2.162-1.246-.541h-1.657l-6.637-2.163-0.831-.541-1.657-3.785,0.414-.541,3.317-3.786,2.488-3.245,3.735-2.164-0.415-1.623,0.829-3.245-2.074-3.787h-2.075l-3.317,1.623-4.148.541h-2.074l-0.829-.541-3.317.541-5.808-2.164-4.977,1.082-2.074,1.623-1.243,2.7-0.831,1.081-3.317,2.705-2.9.541-1.66,1.082-2.074.541-2.074-1.623-0.828-.541-1.246.541-3.731-5.95-3.32-1.623h-3.317L726,662.874l-2.489-1.082-1.657-.541-2.074,1.082H711.9l-0.829-.541-1.243-2.164-2.488,1.082-0.831,1.082-4.977,2.165-0.414,1.082-7.466,4.328-4.148.54-0.829,1.082h-4.148l-1.66,1.082h-2.488l-3.317,1.623-1.246,2.164-2.9,1.623-0.414,2.7-1.246,1.082h-2.9l-1.66,1.082-5.392,1.08-2.488,3.786h-1.66l-2.071,2.164h-3.734l-1.243,1.08-2.074,1.623-0.831,2.162-2.075,2.7-1.657,8.107-2.9,2.163-0.831,1.62,0.414,0.541v0.541l-2.487,2.7-1.244,4.324-2.074,1.62-1.244,2.7-4.563.541H624.8l-0.83-1.622-1.658-.54-2.074-1.08-1.245-.54-3.318-1.621v-1.621l-0.83-.541-2.488-1.08-1.659-1.081-2.074.54-1.659-3.242-4.148-1.081h-1.244l-0.829-3.243-0.415-1.08,2.074-1.622,2.9-5.946v-2.162l-0.415-2.7,2.489-1.082,0.415-3.244h-1.245l-3.733-2.7-2.9-.541-0.415-1.621,0.415-1.623,1.658-1.082,0.415-1.622,0.829-.54,1.244-2.164,1.245-1.082-0.415-1.082-4.147-4.327-1.244-1.082-0.83-1.623-1.66-1.082h-0.828l-1.245-1.082-1.659-.541-0.415-1.083-2.9-2.164v-1.623l-1.244-1.624-1.245-3.247-3.733-1.624H582.49l-0.829-.541-1.66-.541-1.244-1.082-2.9-1.624-0.416-1.083-2.488-.541-1.659-1.624-2.075-.541-0.829,1.083h-2.073l-0.83.541-1.244-.541v-1.083L563,642.849l0.831-2.164V639.6l0.828-2.165-1.244-1.083L563,634.729l0.831-2.708,0.414-2.166h0.414l0.83-2.166-0.414-.541,1.244-1.084,0.829-1.625,1.659-1.624,2.9-1.626h0.83l0.415,1.084h1.659l-1.244-4.333,0.414-1.083-1.244-1.626-1.244-.542-0.414-2.166,1.244-2.168,0.829-1.083,2.073-2.71,0.831-2.168,0.414-2.708,0.83-.543h1.244l0.414-.542h3.319l4.147-2.168,0.829-1.625,1.66-.542,1.659-2.169,0.414-1.084v-0.542l0.416-.542,3.732-2.71h0.829l0.416-1.627h1.658v-1.084l2.075-3.254-0.415-1.083,2.488-1.085,0.829-1.626,4.148-3.255,4.563-1.085h1.658l0.415,1.085h0.416l1.244-1.085,2.488-1.084,0.415-1.084,0.829-.543,0.415-1.627-0.829-3.254,0.829-.543,0.415-1.628h1.245l1.658-1.626h1.244l0.415,1.084,1.245-.542,0.415-.542,0.829-1.085,0.829-.543,0.416,0.543,0.828,2.169,1.245,0.542h1.244l2.488-.542,0.83-2.169-0.414-1.628,0.83-2.17-0.416-1.628,0.83,0.543v-3.8l2.074-2.17h4.561l2.9,1.628,2.075-1.086,0.831,0.542,0.828,0.544h1.66l0.829-.544,2.074,1.086H655.9l0.829-.542-0.829-2.172,1.243-2.17V548l4.148-2.713,1.246,1.085v0.544l7.051-.544,1.657-1.085,1.246-.543h1.243l1.245,1.085,1.243-1.085h0.832l1.242,1.628v0.544L679.13,548l2.489-1.084L685.765,548v-1.084l-0.415-.544h-2.488l-2.488-1.628h2.073l2.489-1.086,2.489,0.543,3.319,2.715,2.072-1.087,2.488,0.543,2.491-1.628,0.415-.543,1.657-1.085,0.831-1.086,0.829-.542,1.659-2.714,0.415-1.629v-1.087l-1.66-1.628-0.414-1.085,1.659-3.258v-1.629l0.415-1.086,1.243-.543,2.074,1.085,1.245-1.085,1.243-.542,2.074-5.975,2.489-1.087,1.66,0.544,1.66-1.086v4.888l1.243,1.086,4.976,5.43,0.415,1.086,1.66,2.172h6.636l2.489,1.628h0.414l2.9,2.715,0.417-1.086-0.831-1.629,4.977,1.629,2.488-.544,0.417-.542,1.243,1.086,2.488-1.086h1.246l2.488,2.714,1.243,0.544,0.415-.544,1.659,1.086,1.246,1.628h8.294l1.245,1.63,1.243-1.086,2.489,0.542,0.414-.542,1.246,1.628,2.488,0.542,1.243,1.629,0.831,0.542L778.257,548l1.66,1.086,2.9,4.884h0.831l0.829,2.17,0.828,0.542v1.086l0.415,1.085-1.243.542-0.829,1.628h0.414l2.9,1.085H787.8l-0.415.543,2.074,2.169v-1.084l0.415-1.628H790.7l1.657-.543V562.1l-0.414,1.628v2.17l-0.829,1.084,0.829,2.169,1.66,2.171,0.414,1.627-0.414.542,0.414,0.542v1.084l0.414,1.085,2.489-1.627h1.245v-1.084l1.243-.542,3.32-1.085,2.489,0.542,0.828-.542,0.829,0.542,2.9,1.627,1.243-.542,0.829,0.542,2.905,1.084v1.085l2.072,0.542,4.148-4.338,1.245,1.627,1.658-2.711,2.488,0.542,1.66-1.085h0.831l0.829,0.543,0.828,2.169,1.246,2.169,0.829,0.542v0.542l0.828-.542,1.66,1.628,0.414,1.085v1.626l0.415,1.085L838.4,583.8v1.626l-1.66,3.8,0.828,1.083v1.085l1.66,3.794,0.414,1.085v1.625l1.66,2.168h0.829l1.66,1.084,4.562-.542,1.244-1.083h1.245l2.074,1.083,3.731-.542,2.9,1.084v0.543h0.831l2.489-.543h2.074l2.074,1.083,0.829,1.085h0.828l0.832,1.083,1.657,1.627,1.245-.542,1.658,1.083H874.9l0.414,1.084,2.074,1.083,0.415,1.626,0.828,0.542h0.417l1.243,1.083,0.414,1.084h0.832v1.084l0.828,0.541-0.828,1.084-0.417,1.625-4.56,1.083-2.491,1.083-0.829.542v1.083l-3.731,3.25-1.246-.541-2.9,1.083-7.051,1.083-2.074,2.167,1.246,5.415,1.657,1.083v0.541l0.831,0.542v0.541l-0.831,3.248h-0.829l-0.414,1.084-0.831-.541v1.081l1.245,2.165-0.414.543,1.243,1.624-2.074,1.082h-0.829l-0.829,3.248,1.658,2.706v0.541l1.245,1.082,0.415,1.083,2.074-1.083,1.243,2.706v2.165l0.417,0.541,2.9,1.082,1.66,0.541,0.829,1.082,1.243,3.788,1.245,2.164,2.488,1.622,0.415,3.246,0.414,0.541,2.489,1.623Z" transform="translate(-562.031 -24)"/>
  <path id="形状_1_拷贝_10" data-name="形状 1 拷贝 10" class="cls-3" d="M828.86,570.782V569.7l0.829-2.17,1.242-.543V565.9l0.832-1.086,2.488-1.627,0.415-2.17,2.9-1.085,0.415-1.628,0.831-.542,0.414-3.8,1.66,0.542,1.243-1.084,0.828-1.086,0.832-1.086,2.074,0.544h0l1.657-.544,1.246-.542,0.829,1.628h0.414l0.417,1.086,0.828,0.542,1.66-1.086,1.243,0.544,1.66,1.084,6.22-1.084,0.831,1.084h1.243l0.414-3.8h8.3l7.052-1.628V548l-0.829-1.084H880.7l-0.414-2.172-0.828-1.628-0.415-3.8,2.9-1.086,2.488-1.628v-2.172l1.243-1.629v-2.172l3.32,1.087h0.414l0.829-2.172,3.734-.543,0.414,3.8,0.829,2.172v3.257l1.659,1.628,1.246,0.544,1.243-1.628h0.414l7.466,3.8h5.394l-0.415,8.14H911.81v1.628h-1.243l0.829,2.712-1.243,2.171V558.3l1.657,1.085,2.905-.542,2.072,1.628,0.831-.543,0.415-1.085L917.2,557.22l0.414-1.085,2.075,0.542v0.543l0.414,0.543-0.414,1.085,0.414,0.542v2.17l1.243,0.543v1.085l-2.074.543,0.417,1.084,0.828-.542V565.9l3.317-.544,0.417,1.086-0.417.542,2.905,7.051,4.563-2.169,5.392,12.472,1.242-1.085,1.246,1.085,1.66-.542v1.084l2.071-1.084,3.32,3.795,0.829-.542,0.414,0.542,1.66-1.627,2.488-.542,0.829,2.169H953.7l-0.414-2.711h2.074l-0.417-2.169h1.246l0.414,1.085,0.829-.543-0.414-1.083,2.488-.542H962V580h4.149l-0.415,1.084h0.415l0.414,0.543h2.074l1.246,0.542v-1.085l0.414,0.543,0.414,2.168-2.074,1.084,0.415,0.542-1.244.542v-0.542l-0.414.542-0.417-.542-0.828.542v2.169l-2.074.543,0.831,3.252h0.828v1.084H967.8v1.626l1.244-.542,0.416,0.542h1.657l2.075,0.542h0.828l-0.414,1.085v1.625l1.66,1.084,0.414,1.084-1.66.542-5.391.542-11.613,2.168,11.2,18.962,1.66,8.124-0.415,5.415h-4.148l0.414,10.827-4.562,2.165h-2.074V646.1l-0.415-1.083-1.659.542v2.165l0.414,1.623-0.829.542-1.66-.542-1.243.542-0.828.541-0.831-.541v0.541l-0.415-.541-2.488-.542-2.074,1.083,0.828,1.082h0.417v0.541h1.243l0.414,9.2V667.2l0.417,1.623-0.417,2.163,0.831,0.541-0.414,2.705h0.829v1.082H940.846l-0.417.541-2.074.541-1.243,1.082,1.243,0.54-0.415.54h-1.657l0.415,1.082V679.1l-1.66.541-1.243,1.623-0.417-.541v-5.408l-12.443.541-5.39-.541V665.039h-1.661v-1.082h1.661l-0.83-1.083,0.415-.541v-0.541l-2.074.541-0.414,1.083-3.735-.542-0.414,1.083V664.5h-2.074l-1.66-.541H900.2v-0.541l-2.9,1.082-0.829-1.082h-0.828v-3.247h0.414v-1.082l3.317-.541,0.414-.542-1.242-.541h0l0.414-1.082h0.828L898.54,655.3v-0.542h1.242v-0.541l-0.414-.541h0.414l-0.414-2.706h1.246v-1.624h-1.246v-1.082l-0.828-.541-0.415-1.083-1.246-1.082-1.659-2.708-1.658-1.081-0.416-2.167-1.657-.54L889,637.436v-1.624h-1.246l-0.828-1.083-0.414-1.083,0.414-1.625-0.414-1.624,0.828-1.083v-2.166l-0.828-1.084-2.489-1.625v2.709l-0.417,1.083-2.9,2.707-0.828-1.083-0.414-3.25-0.832-1.624-2.071,1.624-1.66.543-0.414-.543,0.414-1.083-0.831-1.083-1.658-2.707,0.829-.543v-1.083l0.829-.542,2.491-1.083,4.56-1.083,0.417-1.625,0.828-1.084-0.828-.541v-1.084H880.7l-0.414-1.084-1.243-1.083h-0.417l-0.828-.542-0.415-1.626-2.074-1.083-0.414-1.084h-0.831l-1.658-1.083-1.245.542-1.657-1.627-0.832-1.083-3.731-2.168H862.87l-2.489.543H859.55v-0.543l-2.9-1.084-3.731.542-2.074-1.083H849.6l-1.244,1.083-4.562.542-1.66-1.084H841.3l-1.66-2.168v-1.625l-0.414-1.085-1.66-3.794V590.3l-0.828-1.083,1.66-3.8V583.8l-2.491-2.168-0.415-1.085v-1.626l-0.414-1.085-1.66-1.628-0.828.542v-0.542l-0.829-.542-1.246-2.169-0.828-2.169Z" transform="translate(-562.031 -24)"/>
  <path id="形状_1_拷贝_9" data-name="形状 1 拷贝 9" class="cls-1" d="M1115.87,825.924v-1.076l-1.66-1.616,0.84-1.078h-0.42V820h0.83l-0.41-2.154-4.57-.54h-0.83v1.078l-1.66-2.154-0.41-2.156-1.25-2.157v-4.85l0.83-4.851-0.41-3.774h-2.08l-2.07-.54V797.36l-0.41-.539h-2.91l-0.41.539-1.66.539-0.83-.539h-1.66l-1.66.539-0.41.54h-0.83V797.36h-0.83v-1.616l0.83-1.08,0.41-1.617-1.24-1.618-1.66.539v-1.617h-2.07v1.617h-1.66l-1.25-1.077,0.42-3.775h-2.08l-0.41-3.237h1.24l-0.41-1.617h2.07v-2.7l-2.07-.54h-1.25l-2.9-4.316-0.42-3.776-2.48.539v-1.079l-1.25-1.619h-2.9v1.08l-2.07.539-0.42,1.619h-0.41v-1.079h-0.83v1.079l-1.66.54v1.078l-1.66.54-0.42,2.158-0.83,1.078-4.97.54v-1.078l-3.74.538h-0.41l-0.42,1.079-2.48.54v-2.7l-11.62-.54-4.56,2.158-2.07-1.078,0.83-1.08-2.49-1.079,1.24-1.619,2.08,1.08,0.82-1.618,0.42-3.778-2.49-1.079V762.84l0.42-.54,2.07,1.079,0.42-.539h0.41v-1.619l-1.25.539-1.65-.539v-0.54l-2.08-.539,1.66-2.7-3.73-.54v-2.7l0.83-4.318-1.66-2.16,0.83-1.62,0.83,1.08,1.24,2.7,5.39,0.539-0.41-2.7h-1.25v-1.079l3.74-.541-0.42-1.62-1.24.541h0.41l-2.9.54-2.07-4.859,2.9-1.621-2.07-2.7v-1.081l-0.83-.539,0.83-.54-0.83-.541,2.07-1.079-0.83-1.081,1.66-.539-0.83-1.081-0.41-1.081h1.24v-1.08l1.66-.54v-0.54l-0.42-4.322-0.82-1.62-0.84-.541-0.41-2.16,0.41-.541,1.25-.539v-1.081h-1.66L1035,714.24h1.24l0.42-1.08-2.49-1.622V711H1035l0.41,0.539h1.25l1.24,1.081,0.41-.54,0.42-2.7,0.83-.541,1.24,1.082h4.15l4.15,0.54h0.83v-1.081h1.24V711l1.66,1.08,0.42,1.622,4.14-.541-1.66,2.161,3.32,0.541V714.24l2.9,0.541v0.54l0.42-.54v-3.243h1.24l-0.41-1.62,0.41-3.243,2.49-3.243h-1.24l-0.42-2.162h4.15l5.81-5.946h-0.83l0.41-.541-1.24-2.162-0.42-1.081h-0.83l-0.41-.541,2.07-4.866v-2.164h2.08l-0.42-4.867h-5.39v-2.7l-0.83-1.082h1.66l1.24-.541,1.25-3.246-0.83-.541-0.42-1.082h0.83v-0.54h-0.83l-0.41-.541,0.83-.541-0.42-2.164h0.83v-2.7h-1.24l0.83-.542-0.42-1.623h0.42l-0.42-.541,4.15,1.082-2.49-4.87,0.42-1.082,1.66,0.541,0.41-3.247-0.41-1.083h1.66v-1.082l-1.25-2.706,0.83-2.706,2.49,0.541,2.9,2.165-0.83-3.789-0.41-8.662-0.83-4.874,0.41-1.624-0.41-.542v-1.083l-2.49.542-0.41-1.626v-0.541l2.49-.542,0.41-1.624h1.66v-1.625l-0.42-2.167-2.49-3.249-2.07,1.624-2.9-2.166,1.24-2.167-2.9-2.168-1.66-.542-6.22-.541-3.32-2.168,0.83-1.083h1.66l0.83-2.709v-2.711l2.07-.54v-0.543l2.49-.542v2.168h1.66v0.542h0.83v2.168l2.07-.542v0.542h0.83l0.42,0.542h1.66l-0.42-.542,1.25-.542,1.24,2.167h0.83l-0.42-.542,2.91-1.083,2.07-1.085,0.83-.541,0.42,2.168,1.66,1.625,1.65-1.625,0.42,0.541,0.42,1.084h1.24l0.41,2.167h0.83V610.9h0.42v-0.542l2.07-.542h2.08l0.41,0.542h2.07V610.9l0.83,0.541v2.168l0.83-.542-0.83-3.792,0.83-.543v0.543l1.66-.543,0.42,1.084,1.66-.541,2.9-2.168,1.24-3.251,0.42,0.541,0.83-1.083,2.9,1.626,0.42,2.167h1.24l-0.41-1.625,2.07,1.083,0.41-1.625h1.25v0.542l1.66,0.542v-1.627h0.83v-0.541h1.24v-1.084h2.49v0.542h1.25v1.083l0.41-.541v2.168h1.24V607.1h0.83l0.83,2.168h4.98l2.9,1.083-0.83,1.625,0.42,1.084,2.07,3.251v3.249l-0.41,2.709-3.32,5.958-0.42,3.248-1.24,2.167-2.07,2.166-0.42,3.789,0.42,1.084,2.07,2.164,7.47,3.249,0.82,1.082,0.42,6.5L1140.34,658v4.87l-0.41,4.87,1.25,4.868v5.949l0.82,2.164,3.32,3.244,2.91,1.623h1.24v-3.785h1.66v-2.164l1.66-.541,0.41,4.867h1.25l0.41,1.623h3.32l1.24,0.541,2.08,4.325,1.66,2.7,1.24-.541,2.07,2.7,1.25,1.081h2.49l0.41,2.162h0.42l0.83,3.243,3.73,1.082v1.622l2.49,1.08h0.83v-0.541l2.07,0.541v-1.621h2.07l0.83,0.541,2.91,3.241,0.41,1.622,0.83,0.541,2.08,1.62,2.07,0.541,0.83-.541,0.41-.539v-1.081l-2.49-4.865v-2.161l0.42-.541,2.49-.541v-0.54l0.83-.54,2.9,2.162,1.66,2.7,2.08,3.783,1.24,8.105-0.42,4.323,0.83,1.08,3.74,3.24,1.24,1.081,0.42,1.081h-3.32l0.83,2.7h-0.42v0.539h0.42l0.41,1.081,5.39,1.079,0.83,0.541,0.42,1.619v1.081l-0.83-.54-1.66.54,0.83,3.78-1.66.539v-0.539h-1.24l-1.66-1.621h-2.08l-5.39.54-2.07,2.7,2.07,3.779-3.32,2.161,0.83,1.079-0.83.54v0.539l-1.24-.539-0.83-2.7-0.83,1.081-2.08,1.079,0.42,2.158-1.24.54,0.82,1.62,2.49-.539v1.619h0v1.079h0.83v1.619h0.42v0.539h0.41l0.83,1.08-0.83.541,1.25,1.619-1.66.539v1.619h0.83v1.079h1.66v2.7l-2.08-.54-4.15,1.619,0.42,0.539-1.24.54v0.54l-2.49.539h-2.91v1.079h-0.83l-0.41,1.618-0.83,1.08,0.83,1.079h0.83l0.41,1.079h-0.41l0.41,1.078-0.41,3.237h0.41l0.42,2.157-0.83.539,1.24,0.54h0.42l1.66,2.7-0.83.54,0.83,1.078-2.49,1.078,0.83,1.619h0.41l-0.41-.54,0.83-.54,0.41,0.54,4.15-1.079v0.539h0.83l2.07,3.775-2.07.54,0.83,2.7-4.15,1.078,0.42,0.54-0.83.538-0.42-1.078-1.66.54-0.83-.54h-2.49l-4.14,2.157,0.83,1.079-0.42.538-1.24-1.617-3.32.539-0.42,1.078h-0.82v0.54h-4.57l-0.41,2.7,0.83,0.539V810.3l-0.42,1.078-3.73,1.078-0.83.538,0.41,2.157h-2.07l-0.41-.54-0.42.54,0.42,1.078-2.08,1.616V817.3l-1.24,1.078,1.24,1.616-1.24,1.079,2.07,2.156,2.91,3.77-1.66.539,0.41,1.078v1.616h-1.66l-0.83.538-2.07,1.077-0.41-1.615-1.66-1.078-2.49.539v0.539l-1.66,1.077-3.73.538,0.41,1.078-5.39.538,0.41,1.077,0.42,1.078h-0.42l0.83,2.693-1.24-.538v3.231h0.41v0.538h-2.07v0.539l-0.41.538v0.539h-2.91v-1.616l-1.24-1.616-0.42-3.231-1.66-.538v-1.077l-2.07-1.617-1.24-1.616-3.32-2.154-1.25-.539-1.24-.538-0.42.538-1.24-.538-0.42.538v1.078l-2.48.538V829.7h-2.08v-1.077h-0.83L1117.95,827Z" transform="translate(-562.031 -24)"/>
  <path id="形状_1_拷贝_8" data-name="形状 1 拷贝 8" class="cls-2" d="M974.024,595.181h0.832l0.828,2.71,4.563-1.625,0.829-.543,0.416-1.626h-0.416v-0.542h-0.415l-0.414-2.711h1.245l-0.416-1.625,0.831-.542v-1.085l2.488-.542,4.563-2.169-1.246-1.627,0.831-.542-0.831-1.083h0.414l0.832,0.542v0.541l0.828,1.085h4.149v0.542h2.074l2.9,1.084h0.828v-1.084l1.25-.542,0.41,0.542h0.83v0.542h0.83l0.41-1.627h0.42l-0.42-.542,0.42-1.083,0.41-1.085h-0.83V579.46l-0.83-.542v-2.713l1.66-.542-0.41-1.085,0.41-.542-0.41-.542,2.07-1.085-0.41-1.084,0.83-.543V568.07h1.24l0.42,0.542,0.83,2.17,4.14,1.085v0.542h0.83l0.83,1.085h5.39l1.66,1.626,2.08,2.713,1.66,1.085,4.56-.543,2.07,0.543,2.08,1.626,2.49,3.253,2.07,1.626,2.07-2.711,0.42,0.542v1.085l0.41,1.084,0.42-.542,0.82,0.542-0.41.542h-0.41l0.82,1.627-0.82,1.085v0.542l-2.08,1.083v0.542l0.83,1.627,6.64,3.795,1.24,1.083,1.66,2.71h0.83l2.08,1.627h0.41l-2.07-1.627h2.07l0.41,1.627-0.82,1.083,9.95,7.586,7.88,1.083,3.73,2.71-1.24,2.167,2.9,2.166,2.07-1.624,0.42,0.541,2.07,2.708,0.42,2.167V623.9h-1.66l-0.41,1.624-2.49.542v0.541l0.41,1.626,2.49-.542v1.083l0.41,0.542-0.41,1.624,0.83,4.874,0.41,8.662,0.83,3.789-2.9-2.165-2.49-.541-0.83,2.706,1.25,2.706v1.082h-1.66l0.41,1.083-0.41,3.247-1.66-.541-0.42,1.082,2.49,4.87-4.15-1.082,0.42,0.541h-0.42l0.42,1.623-0.83.542h1.24v2.7h-0.83l0.42,2.164-0.83.541,0.41,0.541h0.83v0.54h-0.83l0.42,1.082,0.83,0.541-1.25,3.246-1.24.541h-1.66l0.83,1.082v2.7h5.39l0.42,4.867h-2.08v2.164L1071.08,691l0.41,0.541h0.83l0.42,1.081,1.24,2.162-0.41.541h0.83l-5.81,5.946h-4.15l0.42,2.162h1.24l-2.49,3.243-0.41,3.243,0.41,1.62h-1.24v3.243l-0.42.54v-0.54l-2.9-.541v1.622l-3.32-.541,1.66-2.161-4.14.541-0.42-1.622-1.66-1.08v-1.622h-1.24v1.081h-0.83l-4.15-.54h-4.15l-1.24-1.082-0.83.541-0.42,2.7-0.41.54-1.24-1.081h-1.25L1035,711h-0.83v0.539l2.49,1.622-0.42,1.08H1035v1.081h-1.25V714.24h-2.49l-0.41-1.621-4.57-.54-0.41,1.622h-1.24l0.41,2.161h-0.83v1.081l-2.9,1.62h0.83l0.41,0.541h-1.24v0.539l-1.66.54-0.42-.54-0.83.54v-1.62h-0.82l-0.42-1.081v1.081h-1.24v1.08h-1.66l-0.42,2.162-4.56,1.62-2.07-2.7-2.49.54-0.42-1.621-3.73-3.241v0.541l-0.42-.541-3.727,1.08-0.414-1.08,0.414-1.621,0.829-.541-1.66-1.621-0.415,1.082H993.52v-1.622h-2.9v-0.541h-2.072V711h2.9l0.414-2.7,1.244-.541,0.416-.539H993.1l0.416-1.082,0.829,1.082h0.828l0.415-1.082v-1.081h0.831l-0.414.541h0.414v-1.08h1.243l-0.414-2.163,2.074-.541v-0.54h0.414l-0.414-1.081h1.244l1.24,1.081,0.42-.54,0.41,1.08,0.83,0.541,0.42-1.621,0.83,0.54v-1.081h0.83v-0.54h0.83l0.41-1.621h-2.07l-0.83-1.082v-0.541h-0.42v0.541l-1.66-1.622v0.541h-0.82l-2.907-2.162v0.54h-0.417v1.081l-0.829-1.081v-1.081h-0.414v-0.541h-0.414v-2.7h0.828v-1.08h-0.414l0.829-3.245-0.829-6.49h0.829v-0.541l2.074,0.541v-1.081h0.824v-0.54h-0.824V676.94h-1.66v-3.246h-0.414v-0.541H998.5v-1.082h-2.9l-2.488.541-0.415-6.491-0.414-8.658h1.245V658h0v-0.541L994.349,658h2.074v-4.87l0.414-2.706,0.829-.541v-1.624h-1.243l-0.831.541-1.243-1.082V647.18l0.414,0.542h0.414l0.415-1.083h-0.415l-0.414-.541h-0.414v-1.624l-1.66.541,0.831,1.083H990.2v-0.541l0.414-.542H990.2v-3.247l0.414,0.541v-1.624h-2.072v-1.624h-4.562v-0.543h-0.832v-1.082h-0.414l-0.414-3.249h-0.829l0.415-1.624h-0.831v6.5l-1.658.54-2.9-1.083H973.2V639.6l-0.829.543,0.414-1.626H973.2l-0.415-1.082,0.829-.542v-1.082l1.66-.542v-2.165h-5.391V630.4l-2.075-8.124L957.02,603.311l11.613-2.168,5.391-.542,1.66-.542-0.414-1.084-1.66-1.084v-1.625Z" transform="translate(-562.031 -24)"/>
  <path id="形状_1_拷贝_7" data-name="形状 1 拷贝 7" class="cls-3" d="M1121.68,460.518l0.83,0.545-0.83,2.175h0.42l0.41-.543h0.42l-0.42,1.087h0.42l0.41-.544,5.39,2.176v0.543l2.49,2.176,0.42-.544h0v1.089l0.82,0.543-0.41.544h0.41l0.42-.544h0.83l0.83-1.088,0.83,0.545-0.83,1.087,1.24,0.543,0.83-1.63,3.73-2.176V464.87h0.42V462.7l0.83,0.543,0.41-1.632h0.42l0.41-1.632h-0.41v-0.543l0.41-3.264h0.42l0.41,1.631,1.25,1.088,0.41-.544V457.8l1.66,0.544,1.25-1.088,2.07,1.088v0.544l1.66,0.545v-2.177h0.41l-0.41,2.72,0.83,0.544v0.545h2.9l1.25,0.543h0v-0.543l-1.66-.545,2.9-1.087V456.71l0.83-1.632,0.41-2.72,1.25-.544V451.27l-0.83-2.176,1.66-1.633,0.83-1.089,1.24-.543,4.98-.545,0.83,1.088,1.66,3.266-0.42,1.088,1.66,4.9,0.83,1.088h4.98v4.9l1.24,3.264,0.83,1.087-0.41.545v1.631l-0.42,1.088,1.25,1.631,1.24,0.545,0.42,1.63v1.087l2.07,2.176v2.176l0.83,1.087,0.83,1.63,0.83,0.544,0.83,3.262,2.49,0.544,0.41,0.543,0.41,0.544-2.07.544-0.41,1.087h-0.83v1.087l2.07,0.543,0.83,1.087h2.49l0.41,2.718,0.42,1.086,2.07,1.087,0.83-1.087,3.32,1.087,0.83-1.63V492.6l0.42-.543,0.82-.544,1.25-1.631,1.66,0.544,0.83,1.087,0.41,1.087,1.25,1.087-0.42,1.63V496.4l-0.41.543,0.41,0.544-0.41,1.087,0.41,1.629-0.83,1.087-1.66-1.087-2.07.544,0.83,2.174,0.83,1.629v1.087l0.83,1.63,0.83,1.631-0.42.543,0.42,0.542,0.83-.542,0.41,2.173h0l0.42-1.087h1.24l2.08,1.63,0.41,2.716h-1.66v2.715l0.83,2.173h1.66v1.629h2.49V520.85h2.07l-0.41,1.629,2.9,4.888,1.66,3.8,2.49,2.714-1.66,3.258-0.42,1.629-1.24,1.628-0.83,2.172v3.8l-1.24,1.086,2.48,1.628-0.83,3.256,1.25,2.712,1.66,1.628-1.25,3.8h-0.83l-0.41,1.084-0.83.543,2.9,1.628v0.542l-0.83-.542v0.542l0.83,0.542v0.542l2.08,0.544v1.627l0.83-.543v1.627h-1.66l1.24,1.628,0.42,2.712h-2.91l1.25,1.084h0.83l0.83-1.084,0.41,0.542h1.24l-0.82,1.084h0.82l-0.82,2.169-0.42,2.171h-0.83l-0.83,3.253-2.49-.542-0.83.542,0.83,1.083h-1.24v-0.542l-1.25-.541-0.41,1.083-1.66-.542-0.41,1.085h0l-0.42,1.626h0.83v4.338l-14.98.339-6.49,1.9-4.24-1.244-12.74,3.732-17.85-5.227-7.35,13.922-4.54-1.327-4.24,1.244-8.61-2.522,0.16,9.776-2.9-1.083h-4.98l-0.83-2.168h-0.83v-1.083H1125v-2.168l-0.41.541v-1.083h-1.25v-0.542h-2.49v1.084h-1.24v0.541h-0.83v1.627l-1.66-.542v-0.542h-1.25l-0.41,1.625-2.07-1.083,0.41,1.625h-1.24l-0.42-2.167-2.9-1.626-0.83,1.083-0.42-.541-1.24,3.251-2.9,2.168-1.66.541-0.42-1.084-1.66.543v-0.543l-0.83.543,0.83,3.792-0.83.542v-2.168l-0.83-.541v-0.542h-2.07l-0.41-.542h-2.08l-2.07.542V610.9h-0.42v-1.084h-0.83l-0.41-2.167h-1.24l-0.42-1.084-0.42-.541-1.65,1.625-1.66-1.625-0.42-2.168-0.83.541-2.07,1.085-2.91,1.083,0.42,0.542h-0.83l-1.24-2.167-1.25.542,0.42,0.542h-1.66l-0.42-.542h-0.83v-0.542l-2.07.542v-2.168h-0.83v-0.542h-1.66V600.6l-2.49.542v0.543l-2.07.54v2.711l-0.83,2.709h-1.66l-0.83,1.083,10.37,2.709-7.88-1.083-9.95-7.586,0.82-1.083-0.41-1.627h-2.07l2.07,1.627h-0.41l-2.08-1.627h-0.83l-2.07-3.251-1.66-1.627-4.98-2.168-1.24-1.626-0.42-.543V590.3l2.08-1.083v-0.542l0.82-1.085-0.82-1.627h0.41l0.41-.542-0.82-.542-0.42.542-0.41-1.084v-1.085l-0.42-.542-2.07,2.711-2.07-1.626-2.49-3.253-2.08-1.626-2.07-.543-4.56.543-1.66-1.085-2.08-2.713-1.66-1.626h-5.39l-0.83-1.085h-0.83v-0.542l-4.14-1.085-0.83-2.17-0.42-.542h-1.24l-1.25-1.627,0.83-1.086h1.66l1.25-1.084h0.82l1.25-.542,1.24,0.542,2.08-1.085,1.66-1.628,0.41-3.255h0.83l-0.41-3.256-1.25-2.712v-2.171l-0.83-1.085-0.83-8.684-1.24-.544-0.83-2.17,0.41-1.086h1.66l0.83-1.629,1.66,0.543,0.83-4.343-2.49-1.086v-0.543l-0.83-.543-2.9.543-0.83-1.086,2.07-5.974,0.83,0.544,0.83-2.716,2.08-3.258-0.83-1.63v-3.8l-1.25-2.716-5.39-4.891,0.83-8.694,1.24-2.173h2.49l0.42-.544-0.42-3.261-0.83-2.174,0.42-4.893v-0.544l2.07-.544,2.49-2.717,2.07,0.543h0.83l1.25-2.719,0.41-2.176h0.42v-1.087h2.07v1.632h4.98V475.2h1.24v-1.632l0.42-.544h4.56l2.07-3.262-0.41-2.176-0.41-.544-0.84-2.718,1.66,1.087,2.49-.544v0.544l0.42-.544h1.66l0.41,1.087,2.07-1.087h2.49l1.25-1.088v1.632l-0.42,1.088h2.49l-0.41,2.176,2.48,0.543v-0.543l2.91,0.543,1.24,1.087v-1.087h0.42l0.83-.543,1.24,2.719h2.08v-1.632h0l1.66,1.087-0.42,1.088,0.83,0.544v1.63l1.66,1.632-0.42,2.72,0.83,0.543,2.08-1.088,4.56,1.088,0.41-1.088h0.42v-4.35h1.24v-0.544h3.74l0.82,1.632h0.42v-0.545h1.24v0.545h0.83V475.2l2.49-.544v-1.088l3.32-.544v-0.543l2.49,0.543,2.07-.543v1.087l0.83,1.632h-0.41l0.41,2.174,1.25,1.089,0.41,2.717h-0.83V483.9l-1.24,2.175h0.83v1.631l1.66-.543v-1.631l0.41-.544v0.544h0.42l0.83,2.718v-0.544l2.48,0.544,2.91-3.8h0.41l2.08-1.632-0.83-1.087,0.83-1.631,1.66-1.087,0.82,0.544,0.83-1.087V475.2l2.49,0.543,12.03-15.772v0.544Z" transform="translate(-562.031 -24)"/>
  <path id="形状_1_拷贝_6" data-name="形状 1 拷贝 6" class="cls-1" d="M1006.38,568.07v2.712l-0.83.543,0.41,1.084-2.07,1.085,0.41,0.542-0.41.542,0.41,1.085-1.66.542v2.713l0.83,0.542v1.084h0.83l-0.41,1.085-0.42,1.083,0.42,0.542h-0.42l-0.41,1.627h-0.83v-0.542h-0.83l-0.41-.542-1.25.542v1.084h-0.828l-2.9-1.084h-2.074V583.8h-4.149l-0.828-1.085v-0.541l-0.832-.542h-0.414l0.831,1.083-0.831.542,1.246,1.627L984.4,587.05l-2.488.542v1.085l-0.831.542,0.416,1.625h-1.245l0.414,2.711h0.415V594.1h0.416l-0.416,1.626-1.244,1.085-4.148,1.083-0.828-2.71H973.2l-2.075-.542h-1.657l-0.416-.542-1.244.542v-1.626H965.73v-1.084H964.9l-0.831-3.252,2.074-.543v-2.169l0.828-.542,0.417,0.542,0.414-.542v0.542l1.244-.542-0.415-.542,2.074-1.084-0.414-2.168-0.414-.543v1.085l-1.246-.542h-2.074l-0.414-.543H965.73L966.145,580H962v1.627h-2.488l-2.488.542,0.414,1.083-0.829.543-0.414-1.085h-1.246l0.417,2.169h-2.074l0.414,2.711h-1.245l-0.829-2.169-2.488.542-1.66,1.627-0.414-.542-0.829.542-3.32-3.795-2.071,1.084V583.8l-1.66.542-1.246-1.085-1.242,1.085-5.392-12.472-4.563,2.169-2.905-7.051,0.417-.542-0.417-1.086-3.317.544v-1.628l-0.828.542-0.417-1.084,2.074-.543V562.1l-1.243-.543v-2.17l-0.414-.542,0.414-1.085-0.414-.543v-0.543l-2.075-.542L917.2,557.22l0.829,1.628-0.415,1.085-0.831.543-2.072-1.628-2.905.542-1.657-1.085V557.22l1.243-2.171-0.829-2.712h1.243v-1.628h0.417l0.415-8.14h-5.394l-7.466-3.8h-0.414l-1.243,1.628-1.246-.544-1.659-1.628v-3.257l-0.829-2.172-0.414-3.8-3.734.543-0.829,2.172H889l-3.32-1.087V532.8l-1.243,1.629V536.6l-2.488,1.628-2.9,1.086,0.415,3.8,0.828,1.628,0.414,2.172h-1.657L879.875,548v1.086l-7.052,1.628h-8.3l-0.414,3.8H862.87l-0.831-1.084-6.22,1.084-1.66-1.084-1.243-.544-1.66,1.086-0.828-.542-0.417-1.086H849.6l-0.829-1.628-1.246.542-1.657.544h0l-2.074-.544-0.832,1.086-0.828,1.086-1.243,1.084-1.66-.542-0.414,3.8-0.831.542-0.415,1.628-2.9,1.085-0.415,2.17-2.488,1.627-0.832,1.086v1.084l-1.242.543-0.829,2.17v1.084h-0.831l-1.66,1.085-2.488-.542-1.658,2.711-1.245-1.627-4.148,4.338-2.072-.542V575.12l-2.905-1.084-0.829-.542-1.243.542-2.9-1.627-0.829-.542-0.828.542-2.489-.542-3.32,1.085-1.243.542v1.084h-1.245l-2.489,1.627-0.414-1.085v-1.084l-0.414-.542,0.414-.542-0.414-1.627-1.66-2.171-0.829-2.169,0.829-1.084v-2.17l0.414-1.628V561.56l-1.657.543h-0.831l-0.415,1.628v1.084l-2.074-2.169,0.415-.543h-0.829l-2.9-1.085h-0.414l0.829-1.628,1.243-.542-0.415-1.085v-1.086l-0.828-.542-0.829-2.17H782.82l-2.9-4.884L778.257,548l-1.243-2.171-0.831-.542-1.657-1.629-2.074-.542-1.246-1.628-0.414.542-2.489-.542-1.243,1.086-1.245-1.63h-8.294l-1.246-1.628-1.659-1.086-0.415.544-1.243-.544-2.488-2.714h-1.246l-2.488.542-1.243-.542,0.414-2.715-1.66-2.714v-0.543L743.419,529v-0.543l1.243-.544-0.415-.542-0.414-.543-0.828.543-0.832-.543-0.414-1.63,1.246-1.086,1.242-2.171,0.829-2.173,0.831-1.629-2.488-2.174,2.488-1.629,0.415-1.085,4.148,1.629h2.488l0.829-1.086V512.7l0.414-.543v-1.087l1.246-.543,0.414-3.8,0.829-1.088h1.245l1.657-2.172-1.243-1.631V500.75l0.829-.544-0.829-2.716h0.829l1.246-2.718,1.243-1.629,0.416-1.631,2.489-2.718,0.414-1.087-0.414-1.087,1.657,0.544,2.074,1.087,2.074-.544,0.829-.543,0.417-2.718,0.829-1.088-0.414-1.087v-0.544l2.488-2.718h0.828l0.415-.543H776.6l1.657-1.633,1.66-.543h0.828l2.906,1.087,0.829-.544h2.074v-1.087h4.562l1.243-.543,0.832-1.089,0.414-1.63,1.243-1.087-0.829-.545,0.829-1.631,0.831,0.544,0.414-1.087h0.415l0.414-1.633,1.245,0.544,0.829-.544v-1.088l1.246-1.63-0.417-1.089L799,462.7v-2.721h1.246L799,457.254v-1.087l-0.414-1.089H799V453.99h0.829l1.245-1.632h1.243l1.66-.544-1.243-2.72H801.9l-0.829-1.089h-0.414l-0.831-.544h-1.243l-1.246-1.089,0.414-1.632-0.414-3.265-0.828-.545,0.828-.543,1.66-.545,1.66-1.634,1.243-.543,0.414-.545h0.417l1.243-1.632h1.66l0.828,1.089,1.246,0.543,0.829-.543,0.414-1.633H810.2l0.829-2.178h0.829l0.416-.544,1.658,0.544,1.245-.544,2.489,3.266,0.414,1.632H818.9v2.722l2.074,4.9H824.3l0.829-.544,0.829-2.177h2.074l0.831,0.544,2.071-1.088v-1.088h0.832l0.414-1.088-0.414-1.634h-0.832l-0.414-1.088,2.075-1.633-0.415-.546,0.829-1.088v-1.088l1.245-1.089h2.074l1.243-.544,1.66-1.089h1.66v0.544l0.414,0.545h0.829l1.245,1.088,1.244,2.721,2.488-.543,2.9,1.089,2.905-1.089,2.071,0.543v1.634h0.832l1.66,2.176v1.634l0.414,0.545,2.074,3.809,1.658,0.544,1.245-.544,1.657,0.544,0.831-.544v-0.544H866.6l1.66-1.633v-0.544l-0.829-1.633v-1.089l-0.831-1.088,0.417-2.177L866.6,434.4l0.831-1.632,1.658-1.633-1.658-.544-1.245.544-0.414-1.089,0.828-1.634,1.246-.543-0.829-1.09-0.417-.543,0.417-.545,0.829-1.09h1.66l0.414,0.545,0.829,3.811-0.829.545-0.414,1.633,0.414,0.544,2.074-.544,0.828-.544v-1.634l1.244-.545-0.415-1.088,0.415-.545-0.829-1.633L872,424.055l-2.074-1.089,0.829-2.722,0.414-1.09-0.829-.545,0.415-1.633,2.9-1.09H874.9l0.828-1.633h0.832l0.828,0.545,0.829-.545h1.246l0.828-1.634,1.246-.545,0.414,0.545,1.243-.545,1.245,1.634,1.66-1.089,0.415-.545h1.657l0.417-1.089L889,410.44l0.828,0.545,1.246-.545h2.072l0.831-1.089h2.488l0.414-.545-0.414-.545,0.829-1.089,0.414-1.089,0.832-.545h0.414l1.242,0.545,2.075-.545,2.074,0.545,0.831,1.089,0.414,1.089,0.829,1.635,2.074-1.635h2.074l0.829-1.089,1.66,1.089V409.9l0.414,0.544,1.66-1.634v-1.634l0.829-.544-0.414-.545,0.828-.545,1.245-.545,0.415,0.545,0.828,1.09h0.832l0.828-.545h1.66l0.829-.545,4.977,3.813,2.9-2.723,0.417-.545-0.417-.545,0.417-.545-0.417-1.09v-1.089l-0.414-1.635,0.831-1.634,0.415,0.544h0.828v0.545h0.829l-0.415,1.635H933.8l-0.417,2.179,1.66-.545,1.245-1.089,4.563-1.09,3.317,1.09h1.243l0.417,0.545,1.243,0.544,2.074,1.09,1.245,2.179h0.829l2.488,2.179V409.9l0.829,0.544h0.831l1.243,1.09h2.074l0.829,1.633,1.245,1.09-0.414.545h-0.831l0.831,0.543-0.414.545-1.246-.545H957.02l0.831,0.545-1.66,1.635v2.723l2.9-.545,0.414-.545,1.66-1.089v1.089l1.245-.545,2.489,1.635-1.246,3.266-0.829.545,0.829,1.634,0.415,0.545v1.088l0.831,0.545-0.417,1.088v1.089l-0.414,1.089,0.414,1.089-0.829,1.088h-0.829V434.4l2.489-1.632h2.074l-0.417-1.633,0.417-.544,1.658-.545,0.416,0.545,1.657-1.089,0.832,1.089,1.243-.545h0.828l2.489,2.178,1.245-1.089,0.415,0.544,1.245,0.545,1.243-.545h0.415l0.416,1.089,2.489,1.089,1.243,1.089,2.074-.546,0.828-.543,1.66,1.089h2.489l1.66-2.178,1.242,1.089-0.414,1.633,1.246,2.177,0.414,1.088h1.243l0.417,0.546,0.414,0.543,0.829,1.088,2.074,1.633v0.544l-0.41,1.089-1.25.544-0.828,2.721-1.246.544-0.414,1.633-0.829.543,0.414,0.545,1.66,0.544,0.415,1.631L998.5,453.99l0.829,1.088-0.414.544,0.414,1.088-0.414,2.721,0.828,0.543,1.25-.543,0.41,0.543,0.83-1.088h1.24l1.25,1.088,0.41-.543,2.08,1.632v0.543l0.83,0.544,3.31,0.545,0.42,1.087,1.66,1.088v4.351l1.66,1.631,2.49,1.632h1.65l1.66-.544,2.08,0.544v0.543h-0.83v1.087h-0.42l-0.41,2.176-1.25,2.719h-0.83l-2.07-.543-2.49,2.717-2.07.544-0.42,5.437,1.25,4.348v1.631h-2.91l-1.24,2.173-0.83,8.694,5.39,4.891,1.25,2.716v3.8l0.83,1.63-2.08,3.258-0.83,2.716-0.83-.544-2.07,5.974,0.83,1.086,2.9-.543,0.83,0.543v0.543l2.49,1.086-0.83,4.343-1.66-.543-0.83,1.629h-1.66l-0.41,1.086,0.83,2.17,1.24,0.544,0.83,8.684,0.83,1.085v2.171l1.25,2.712,0.41,2.714V558.3h-0.83l-0.41,2.713-1.25,1.628-2.49,1.627-1.24-.542-1.25.542h-0.82l-1.25,1.084h-1.66l-0.83,1.086Z" transform="translate(-562.031 -24)"/>
  <path id="形状_1_拷贝_5" data-name="形状 1 拷贝 5" class="cls-2" d="M1005.55,187h1.24l1.25,1.1,1.65-.548,1.25,0.548,0.83-.548,1.24,1.644,0.42,1.1,0.83,1.095,2.49,1.1,1.65,2.192,2.08-1.1,0.83,2.74V199.6h-0.42v2.192l1.25,0.547,0.83,1.1,3.31,1.095-0.82,1.1-0.42,1.643-0.83.547,0.42,5.476-0.42,1.095-0.41,1.1-0.42,1.1h-1.24v0.548l-0.83.547,0.41,1.642,1.25,2.738-0.83,1.643-1.25.547-0.41,1.093,0.41,1.643,0.83,1.095-0.41,1.095-0.83.547h-1.66l-1.66,2.189-1.66.547-0.83,3.284-1.24,2.188v0.548l-0.42,1.095,0.42,1.093,1.24,1.643h1.25l0.41,0.546,1.25-.546,1.65,1.093h1.25l0.41,0.548,1.66-2.189,0.42,1.094,2.9,0.547,0.41,0.548h0.84l-0.42,1.641,0.83,1.641,1.24,0.548v1.093l-0.83,1.095,3.74,1.093v1.642h1.24v0.546h1.66l0.42,1.095h0l0.41-2.189h1.66l2.07,1.641,0.42,2.189,2.07,1.093v0.547l0.42,1.093V259.8h1.24l0.42,1.094h0.82l1.66,1.639h0.83l0.42,0.548,4.15,0.546v2.735l-0.83,2.187-1.25,1.094-1.24-.548-0.83-.546-1.25-.547-0.83,1.093h-1.24l-2.07.548-3.32-1.094-1.66,1.094v1.092l-0.41,1.094v1.093l-0.42.548v1.092l-0.83.548,0.41,1.092-0.41,1.094h-0.83l-0.41,1.639,0.41,1.094h-0.41l1.24,1.64-0.83,1.092H1035l0.41,0.548V284.4l-2.07,1.64,0.41,2.732-0.83.547-1.66,2.733-0.41,1.638-0.83.546-1.25-1.638,0.83,1.638-2.07,1.093-0.41,1.639-1.25,2.186h-1.66l-0.83,1.639v1.092l-0.83,2.731-2.49,1.093-0.41,1.092-0.83,2.185-1.24.546-3.74.547v1.638l-1.66,2.729-0.41,2.185-1.66,1.093-0.83,1.092-1.24,1.091-1.66,3.277-2.49,3.276,1.24,2.183,0.83,0.546h1.66l1.25,1.091h0.41l0.41,1.092,0.83,0.545,0.83-.545,1.25,0.545,2.07-.545,2.08-1.638h2.48l0.42,1.638,0.41,0.545,0.42,1.639,2.49,1.637,0.41,1.637,1.25,0.546,0.83,1.637,2.9,2.729v3.274h-0.83l-0.83,1.091-1.24.545-1.66,2.728h-3.32l-3.73,1.091-1.66-.545-0.42-1.091h-0.83l-0.41-.546-2.49.546-4.15-.546-1.24-1.091-3.32-1.091-0.42.545V347.2l0.42,1.091-0.83,1.091v1.091l-1.66.546v-0.546h-0.828l0.414-.545h-3.317l-3.32,2.182h-2.9l-2.074-1.091h-0.828l-0.832-1.091h-0.414l-0.829-.546-1.66,1.091-0.828-.545h-1.245L979,351.022v1.091l-2.074.545,0.414,0.546-1.245.545-0.415.546H976.1l-0.829,1.091-0.829-.546-0.417-1.091-0.828.546,0.414-.546h-1.243l-0.831-1.091v-1.091l1.245,0.546-0.414-2.182h-0.414v-0.546l1.243-.545-2.075.545-0.828-.545h-0.829l-0.831-.546v-0.545H967.8v-1.092l0.829-.545-0.829-1.091,0.829,0.545,0.415-.545-1.244-2.183,0.415-1.091-1.66-1.092-1.657-1.092-1.66.546L962,339.018h-2.488l-4.563,1.637-0.414-.546-1.243-.546-2.489,1.092-2.488-1.092-1.245.546-2.075-.546-2.488,2.729h-0.829l-0.828,2.183h-1.66l-2.074,3.274-2.9-.546-2.074.546-0.414.545v1.637l0.828,0.545v1.091l0.414,1.637,2.075,2.727,0.828,1.637,2.489,1.092-1.243,1.635-0.414.545-0.415,1.091-0.417,1.091v1.091l-0.828.545-0.829-1.091V365.2l-1.66,1.09,0.414,1.636-0.828.546,0.414,1.09-0.828,1.091v1.091l-0.832,1.09,0.832,0.546,0.414,1.089-0.829,1.091,0.415,1.09v1.636l1.242,1.089v1.637l0.832,1.635v1.635l-0.832,1.636-1.242.545-0.832-1.091v1.091h-1.243l1.243,0.545-0.414,1.089,1.246,2.726-0.415,1.09-1.245,1.089,0.414,1.09h0.414l-0.414,1.09v1.089l-1.243,1.635-0.831.545,1.66,0.545,0.414,0.545v0.544h0.414l-0.414,1.09,0.414,1.635V403.9l0.417,1.09-0.417.545,0.417,0.545-0.417.545-2.9,2.723-4.977-3.813-0.829.545h-1.66l-0.828.545h-0.832l-1.243-1.635-2.073,1.09,0.414,0.545-0.829.544v1.634l-1.66,1.634-0.414-.544v-1.635l-1.66-1.089-0.829,1.089h-2.074l-2.074,1.635-0.829-1.635-0.414-1.089-0.831-1.089-2.074-.545-2.075.545-1.242-.545H898.54l-0.832.545-0.414,1.089-0.829,1.089,0.414,0.545-0.414.545h-2.488l-0.831,1.089h-2.072l-1.246.545L889,410.44l-0.414.545-0.417,1.089h-1.657l-0.415.545-1.66,1.089-1.245-1.634-1.243.545-0.414-.545-1.246.545-0.828,1.634h-1.246l-0.829.545-0.828-.545h-0.832l-0.828,1.633h-1.246l-2.9,1.09-0.415,1.633,0.829,0.545-0.414,1.09-0.829,2.722L872,424.055l1.243,1.089,0.829,1.633-0.415.545,0.415,1.088-1.244.545v1.634l-0.828.544-2.074.544-0.414-.544,0.414-1.633,0.829-.545-0.829-3.811-0.414-.545h-1.66l-0.829,1.09-0.417.545,0.417,0.543,0.829,1.09-1.246.543-0.828,1.634,0.414,1.089,1.245-.544,1.658,0.544-1.658,1.633L866.6,434.4l0.417,1.09-0.417,2.177,0.831,1.088v1.089l0.829,1.633v0.544l-1.66,1.633h-1.243V444.2l-1.245.544-1.243-.544-1.245.544-1.658-.544-2.074-3.809-0.414-.545v-1.634l-1.66-2.176h-0.832V434.4l-2.071-.543-2.905,1.089-2.9-1.089-2.488.543-1.244-2.721-1.245-1.088H841.3l-0.414-.545V429.5h-1.66l-1.66,1.089-1.243.544h-2.074l-0.831,1.089-0.414,1.088-0.829,1.088,0.415,0.546-2.075,1.633,0.414,1.088h0.832l0.414,1.634-0.414,1.088h-0.415l-0.417,1.088-0.828.544-1.243.544-0.831-.544h-2.074l-0.829,2.177-2.9.544h-1.245l-0.414-1.633-0.415-1.088-1.245-2.177V437.12h-0.829l-0.414-1.632-0.831-.544-1.243-2.178-0.415-.544-1.245.544-1.658-.544-0.416.544h-0.829l-0.829,2.178H808.95l-0.414,1.633-0.829.543-1.246-.543-0.828-1.089h-1.66l-1.243,1.632h-0.417l-0.414.545-1.243.543L799,439.842l-1.66.545-0.828.543,0.828,0.545,0.414,3.265-0.414,1.632,1.246,1.089h1.243l0.831,0.544h0.414l0.829,1.089h0.831l1.243,2.72-1.66.544H801.07l-1.245,1.632H799v1.088h-0.414L799,456.167v1.087l1.246,2.72H799V462.7l0.829,0.543,0.417,1.089L799,465.957v1.088l-0.829.544-1.245-.544-0.414,1.633h-0.415l-0.414.543h-0.831l-0.829,1.631-0.828-.544-0.832-1.63h-0.828l-0.829-2.721,0.414-.543-2.074-1.087V462.7l-1.66-1.089v-1.088l-0.828-1.632,0.414-.544-0.414-1.088-1.66.544v-1.631l-0.414-.545,0.414-.544v-1.631l-1.66-2.177-0.414-1.632h-0.415v-0.544l0.829-1.089,0.417-.544v-1.089l0.414-1.088-2.9-1.088-0.418-2.177-1.242-.544-0.415-1.088-1.245-.545-1.243.545v-0.545l-1.66-2.177V437.12l1.66-1.088,0.414-1.088-0.831-1.089-0.829-.545-0.414-1.633-0.414-1.633,1.243-1.634-1.658-3.266-0.416-2.178-0.415-.544v-1.089l-2.9-1.089-0.828-1.09-7.051,1.09-0.831-1.09-2.489.545v-0.545h-0.829v-1.089l-2.074.544v-1.088h-0.828v-0.545l-1.66,1.089h0l-1.243-.544-2.074,1.088-0.831-1.088v-0.545h0.831v-1.09l-0.831,1.09H748.4l-0.415-.545h1.243v-0.545h0l-1.66-.545h1.66v-1.088h-1.243v-0.545h1.243v-0.545h-1.66l1.66-.544V410.44H748.81v-1.089h-2.074v-1.09l-2.9.545v0.545h-0.828l-0.832-.545h-0.414v-1.09l-1.246.545-0.414-2.178h-1.243l-0.414-2.18-17.007-23.432h-0.829v-0.545h0.414l1.246-.547-0.415-1.634h-3.319l-1.243-2.727-0.832-.545-1.657-1.635v0.546l-0.831-1.636h-0.414v0.545h-0.829L711.9,371.2l-1.243.547h0l0.414-.547h-0.828v-0.544l0.414-.545v-0.546l1.243-.545h0l-0.415-1.091,0.415-.545-0.415-1.091,1.246,0.546L711.9,365.2h0.417l-0.832-1.637,0.415-.545h0.831l1.243,1.091v-0.546h-0.414l-0.415-1.09,0.829-1.637H714.8V360.3l-0.417-.545-1.657,1.09H711.48l-1.242-1.636v-2.182l0.828-2.182,0.829-.545,1.245-1.637v-2.182l-0.414-1.091,0.829-2.182,1.659-1.637v-1.637l-1.659-1.091-1.66.546-2.489-2.729-1.657-.546-8.3.546-0.414.545-0.414,1.638-2.9-4.912,2.074-4.365-0.417-1.093,1.246-.546,0.414-2.183,2.075-4.367,2.073-2.729h0.829V321l-1.243-1.637,0.414-1.092,0.829-.546,1.66,0.546,2.074-1.093,0.414-.546,0.415-1.092,1.66-2.73,2.074-.546,0.828-2.184,3.317-2.731,2.489-1.639h2.074l1.66,1.639,2.488-.547,2.489,1.093H728.9l2.489-1.093,0.828-2.185-0.414-2.731,0.829-1.638v-1.641l0.414-1.092,0.831-4.37,0.829-2.186,4.563-1.639,2.073-.547,1.244-1.092,1.245,1.092,2.489,0.547,0.828-.547h1.66l1.66-.546,0.829-.546,0.414-1.64,2.074,0.546,0.829-.546,2.488,0.546,0.831-.546,1.243,0.546,1.66-1.639,0.829-2.187,0.831-1.092,0.414-1.094,2.074-1.64,1.658-2.186,0.831-.547,0.414-1.092,0.828-1.094,0.832,0.546h3.731l3.734,2.187,2.9-.547,1.66,1.094,2.9,0.547,1.659,1.092,0.829-.546h2.074l1.66,1.094h1.657l1.66,1.092v1.094l-0.828,1.64,2.9-.548v0.548l0.829,2.732,0.828,3.825,1.66,2.733,0.415,2.731,1.245,0.547,0.414-.547h2.489l0.828-.546,1.246,0.546,0.414-1.093V292.6l3.734,0.546,0.415-2.186,0.828-1.093h0.831l1.243-2.732,1.66-1.64v-0.546l-0.831-.547,0.417-.546,1.243-.546,1.66-2.186h0.414l0.829-1.094,0.416,1.094,0.829-1.094,0.415,1.094v1.638l-0.829,1.64,0.829,1.093,1.659-1.639,0.414-.546,0.415,0.546,3.734-1.094,2.488-2.186,3.318-.546,2.074-1.64h2.488l1.66-.546,0.414-.547,0.414-3.28,0.829-1.094,4.149-2.733,1.245-1.64,4.146-1.641h0.417l0.414,1.641h1.243l6.222-.547,1.243-.546,0.417-.548-0.831-1.64-3.317-3.828-0.415-3.281-0.417-.547,0.832-1.094,2.488-1.093,0.829-1.094,2.074-.548,0.415-1.093,1.245-1.642,1.243-2.734h0.414l-0.414-.547,1.245-1.642h0.829l2.488,0.546,0.832,0.548,2.9,1.095,4.149,0.546,1.243-.546v-1.643l1.245-3.282,0.415-3.282,1.242-2.19V236.28l0.832-2.189v-2.737L880.7,230.26l0.415-1.094,1.66-1.643,0.828-2.736v-1.094l1.245-1.643v-1.095l2.075-1.095-0.414-1.1L889,216.028l0.414-2.191,2.489-1.095,3.317-3.285v-1.1l-0.414-1.095v-1.643h1.659l0.829-1.1,1.246,1.1,2.074-1.644,0.828-1.094v-2.739l1.246-2.191,4.56-3.287-0.415-1.1-1.243-.547,0.415-1.644v-3.287l2.074-2.191v-2.74l-0.414-1.646,2.071-1.1,0.831-1.643,1.66-.548,0.829-1.645,2.489,1.1,0.828,1.1h1.245v1.1l0.829,0.547,0.414,1.1h1.246l0.414,1.646,0.829,1.094,1.245,0.549v3.288l0.415,1.1,1.245,1.644v1.643h0.829l0.828,1.095,1.66-1.642H928.4l1.245,0.547,1.66-.547,1.657,2.739,2.075,1.643,2.488,0.548,1.66,2.191,0.829-.548v-1.643l-0.829-1.644v-1.644l-0.415-1.642,2.075-3.288,1.657-1.1h0.831l0.829-.548h2.488l1.66-.548L949.554,187h2.489l0.414,0.548,2.074-.548,2.9,1.644,2.491-.548,1.243-1.1,2.9,1.1,1.245-.548h3.732l1.245-.548,0.414-1.1h1.66l1.657-1.1,0.832-1.1,2.074,0.547,1.657-1.094,0.831,0.547,1.658-1.1,2.9,1.643,0.828,4.933H987.3l1.245,1.1,2.9-.548,2.489,0.548,1.242-1.1h1.66l3.733,1.644,1.66-1.644,1.66-.548Z" transform="translate(-562.031 -24)"/>
  <path id="形状_1_拷贝_4" data-name="形状 1 拷贝 4" class="cls-1" d="M930.889,400.089h-0.414v-0.544L930.061,399l-1.66-.545,0.831-.545,1.243-1.635v-1.089l0.414-1.09h-0.414l-0.414-1.09,1.245-1.089,0.415-1.09-1.246-2.726,0.414-1.089-1.243-.545h1.243v-1.091l0.832,1.091,1.242-.545,0.832-1.636v-1.635l-0.832-1.635v-1.637l-1.242-1.089v-1.636l-0.415-1.09,0.829-1.091-0.414-1.089-0.832-.546,0.832-1.09v-1.091l0.828-1.091-0.414-1.09,0.828-.546-0.414-1.636,1.66-1.09v-1.637l0.829,1.091,0.828-.545v-1.091l0.417-1.091,0.415-1.091,0.414-.545,1.243-1.635-2.489-1.092-0.828-1.637-2.075-2.727-0.414-1.637v-1.091l-0.828-.545v-1.637l2.488-1.091,2.9,0.546,2.074-3.274h1.66l0.828-2.183H942.5l2.488-2.729,2.075,0.546,1.245-.546,2.488,1.092,2.489-1.092,1.243,0.546,0.414,0.546,4.563-1.637H962l1.246,1.091,1.66-.546,1.657,1.092,1.66,1.092-0.415,1.091,1.244,2.183-0.415.545-0.829-.545,0.829,1.091-0.829.545v1.092h0.829v0.545l0.831,0.546h0.829l0.828,0.545,2.075-.545-1.243.545v0.546h0.414l0.414,2.182-1.245-.546v1.091l0.831,1.091h1.243l-0.414.546,0.828-.546,0.417,1.091,0.829,0.546L976.1,354.3h-0.415l0.415-.546,1.245-.545-0.414-.546,2.074-.545v-1.091l2.072-1.091h1.245l0.828,0.545,1.66-1.091,0.829,0.546h0.414l0.832,1.091h0.828l2.074,1.091h2.9l3.32-2.182h3.317l-0.414.545h0.828v0.546l1.66-.546v-1.091l0.83-1.091-0.42-1.091v-0.546l0.42-.545,3.32,1.091,1.24,1.091,4.15,0.546,2.49-.546,0.41,0.546h0.83l0.42,1.091,1.66,0.545,3.73-1.091h3.32l1.66-2.728,1.24-.545,0.83-1.091h0.83v-3.274l-2.9-2.729-0.83-1.637-1.25-.546-0.41-1.637-2.49-1.637-0.42-1.639-0.41-.545-0.42-1.638h-2.48l-2.08,1.638-2.07.545-1.25-.545-0.83.545-0.83-.545-0.41-1.092h-0.41l-1.25-1.091h-1.66l-0.83-.546-1.24-2.183,2.49-3.276,1.66-3.277,1.24-1.091,0.83-1.092,1.66-1.093,0.41-2.185,1.66-2.729v-1.638l3.74-.547,1.24-.546,0.83-2.185,0.41-1.092,2.49-1.093,0.83-2.731V300.8l0.83-1.639h1.66l1.25-2.186,0.41-1.639,2.07-1.093-0.83-1.638,1.25,1.638,0.83-.546,0.41-1.638,1.66-2.733,0.83-.547-0.41-2.732,2.07-1.64v-1.092l-0.41-.548h-0.42l0.83-1.092-1.24-1.64h0.41l-0.41-1.094,0.41-1.639h0.83l0.41-1.094-0.41-1.092,0.83-.548v-1.092l0.42-.548v-1.093l0.41-1.094v-1.092l1.66-1.094,3.32,1.094,2.07-.548h1.24l0.83-1.093,1.25,0.547,0.83,0.546,1.24,0.548,1.25-1.094,0.83-2.187v-2.735l-4.15-.546-0.42-.548h-0.83l-1.66-1.639h-0.82l-0.42-1.094h-1.24v-1.095l-0.42-1.093v-0.547l-2.07-1.093-0.42-2.189-2.07-1.641h-1.66v2.189H1035l-0.42-1.095h-1.66v-0.546h-1.24v-1.642l-3.74-1.093,0.83-1.095v-1.093l-1.24-.548-0.41-1.641v-1.641l-1.66-.548-2.49-.547-0.42-1.094-1.66,2.189-0.41-.548h-1.25l-1.65-1.093-1.25.546-0.41-.546h-1.25l-1.66-2.736,2.49-7.115,1.66-.547,1.66-2.189h1.66l0.83-.547,0.41-1.095-0.83-1.095-0.41-1.643,0.41-1.093,1.25-.547,0.83-1.643-1.25-2.738-0.41-1.642,0.83-.547v-0.548h1.24l0.42-1.1,0.41-1.1,0.42-1.095-0.42-5.476,0.83-.547,0.42-1.643,0.82-1.1-3.31-1.095-0.83-1.1-1.25-.547V199.6h0.42v-3.286l-0.83-2.74-2.08,1.1-1.65-2.192-2.49-1.1-0.83-1.095-0.42-1.1-1.24-1.644-0.83.548-1.25-.548-1.65.548-1.25-1.1h-1.24l0.41-1.1-2.49-4.386,0.42-3.287-0.83-1.1v-3.289l-1.25-1.1h-1.66l-0.824-.549,0.414-1.1-0.414-.548-1.66-1.644-2.489-1.645-0.414-1.1,0.414-.548v-1.645l-0.414-.548-0.828-.549-0.415-2.741-4.562-1.1H987.3l-2.489-2.192-0.414-1.1-2.488-1.1-0.831-1.1-0.415-.549-0.414-3.839-0.829-1.1-0.831-2.743-1.243-1.645-2.9-2.743-0.831-2.194V137.1l-1.657-.549L969.879,136l-0.415-1.1-1.245-1.1-1.246-2.195-1.243-.549-2.074-2.195-0.414-2.195-0.829-1.1-0.831-.549-0.414-1.1-2.9-1.648-2.074-1.646-0.829-1.648h-0.831l-1.243-2.195v-1.1l-0.831-1.1-2.489-1.646v-1.1l0.417-2.2v-1.1l-0.417-4.943,1.66-1.647,0.829-2.747,0.831-1.1,2.488-1.649,0.829-1.1h4.148l0.829-2.2,1.245-.55v-1.1l2.489-.55,2.488,2.2,0.829,1.648,0.831,0.55-0.416,1.647,0.831,1.648,1.242,1.1,0.415,3.3,2.488,4.393,2.075,1.648,0.414,1.647,0.831,1.647h2.488l3.732,3.3,2.488-1.648,2.074,0.549,2.906-1.1,2.488,2.746,4.977-.549,0.829-.551,4.144,0.551,0.83,0.549,0.83,1.646h4.15v-1.1l0.83-1.1,0.83-1.648-0.83-1.1,0.41-1.1-1.24-3.844-0.41-3.294-2.08-3.3-0.41-3.3-2.49-.55,0.41-2.746-2.9-4.944-0.41-2.2-2.907-2.2,0.829-2.2,0.828-2.747,0.83-1.1-0.83-3.3,0.83-1.1V73.4l0.83-1.1V70.1h0.41l0.83-.55,2.49-1.649,1.25,1.1,0.41,0.549,1.66,0.55,0.83,1.1,0.41,0.549,1.25-.549,1.24-1.1h0.83l1.25-1.1,3.32,2.748h1.24l3.32,1.1h1.66l1.66,0.549h1.66l1.24-1.649,0.41-2.2,2.08,0.55,1.24-.55,2.49-2.2,0.83-1.65,2.9-1.1,2.08,1.649h3.32l1.65-.55,0.83-2.748h0.83l2.49,1.1,2.08,2.2L1052,66.8l1.66,1.1,1.66,2.2,1.24,0.55,1.25,1.649h1.24l3.32,1.1,6.22-4.4,0.83-2.2V64.6l0.83-4.4-1.24-1.1V58l0.83-2.749v-1.1l0.83-1.1v-1.1l1.24-1.65v-1.65l0.41-1.1-0.83-1.1,0.42-.55v-3.3l-0.42-.55-1.24-2.2-1.66-.55V36.555l0.42-2.2,0.41-.55,0.83-2.2v-1.65l-0.83-.55,3.73-1.1,2.49-3.3,2.49,0.55,0.41-.55,1.66,1.652,1.25-1.1,1.66,0.55,0.41,0.551h0.83l1.66,1.1,0.83,1.652v1.1l1.66,1.1,2.07,1.65,2.49,0.551,0.83-.551,1.66,2.2,2.49,0.55,1.24-1.1,1.66-.55,0.83,2.2-0.41,1.65,1.66,2.2,0.41,1.651-0.41,1.651,0.41,1.65,1.24,2.2-1.65,3.85-1.25.55-0.83.55,0.83,1.649-0.41,1.1L1099.28,58l-0.83.55-0.41.55v3.3h-0.42l0.42,2.749-0.42,2.2L1098.87,69l-1.66,1.1-0.42,1.649-0.82,1.1-0.42,2.748,2.49,3.3,1.66,1.1v2.748l0.83,0.549,0.41,2.748-0.41,1.1,1.66,0.549,1.66,3.3,2.07,1.647,0.41,2.748,2.08,1.1,2.07-.549-0.41,1.647,1.24,1.648h1.25l2.07,1.1-2.07,3.3-0.83,2.747-0.83,1.1v2.2h1.66l2.9,2.2v1.1l0.83,0.548v1.646l1.66,1.648h2.49l0.83,1.1,0.83-.549,1.65,1.646H1125l1.66,1.648h2.07l1.66,0.549-0.41,2.195v2.2l0.41,0.549,1.25,0.549,2.9-1.647,1.24,2.744h2.08l1.24,0.549,0.42,1.647,2.07,2.743,1.66,0.549,0.41,1.646,2.49,1.646,0.42,1.647-0.42,2.193,0.83,0.55v0.548l0.42,1.1,1.24,0.548-0.41,3.292,0.41,1.645,0.83,0.549h0.83l1.24-1.645,0.83-1.647,0.83-.548h3.32l0.42,1.1,0.83,1.1v1.1l0.82,0.549h0.83l1.66-.549,1.66,0.549,0.42-.549,1.65,1.646h3.32l0.42,1.645,2.9,0.549,2.49,3.839V156.3l-0.41,1.1,2.48,1.1,1.25,1.1h2.49l0.41,1.644,1.66,1.1,0.83,1.645-0.41.548,0.41,1.645-0.41,2.193-0.42,1.1,0.83,0.549,1.66,0.548,0.41,0.548-0.83.549-0.83,1.1-1.24.547h-0.83v-0.547l-1.66-.549-0.83,1.645-0.83,1.1-1.24.547v-0.547h-0.83l-1.25,1.1,0.42,0.547,0.42,0.549v1.644l0.82,0.549,0.42,1.094-2.9,1.1-0.42-.547-0.83.547-0.41,1.646-2.49.547-0.42,2.193-0.41.547-4.15,1.644-0.83-.548h-0.41l-0.83,1.1,0.41,0.548,0.42,1.1,0.41,2.191h0.83l0.41,1.644h-1.24l0.42,1.095-0.83.549v0.547l-1.25,1.095-0.83,1.644-0.83,1.1h-2.48l-1.25.548-0.83-1.1h-2.07l-1.66.549-1.25,1.643h-2.9l-3.32-1.643-0.41-.549-1.25-.547-0.41-1.644-1.66-1.642-0.83,2.738-0.41.548,0.41,1.1,0.41,1.1,0.84,3.286,0.82,1.1v2.19l0.83,0.548,0.83,3.286-0.41,4.381,0.41,1.095-0.41,1.095v2.737L1142,222.05l0.42,1.095L1142,224.24v1.093l-0.41,1.643-0.83.547h-1.66l-0.41-.547-1.25.547-1.24-1.642-2.08.547-2.07-2.188-2.9.547-0.83,1.641-2.49,1.095-0.42,2.19-2.07.547-2.9,2.189-2.49.548-1.66,1.094v1.094l-0.42,1.095h-0.82l-2.08,1.641v1.095h-1.24l-0.83,1.641v0.548l0.41,1.095v1.641l-0.41,1.093,0.41,1.641-1.24,1.1-0.83,1.64,1.24,5.47-0.41.548-0.42,3.828,0.83,1.641-1.24.546v1.093l-0.42.548-2.9,2.187v0.546l-0.41,1.094,0.41,1.094,1.66,1.093h-0.42l0.42,1.64v1.641h-0.83l-1.24-.547-0.84,1.093-0.41.548,0.83,1.64h0.83l0.41,1.639,1.25,0.547,0.83,1.639,0.41,1.094-1.24,2.186,0.83,1.094h0.83l0.83,0.546v1.093l-1.25,1.639,1.25,1.64-1.25,1.093,1.66,2.733-0.41,1.092,0.41,1.092,0.83,0.547,0.42,5.464-2.08,1.092-0.41,1.638-0.83,1.093h-3.32l-1.24-1.093-1.25,1.093-0.83-.547h-2.49l-2.49,1.093-0.41,1.093,1.24,2.185-3.73-.546-0.83.546h-1.24v0.546l0.41,0.546h-0.83l-0.83,1.093,0.42,1.092,0.41,0.546,0.83-.546v-1.092l1.25-.547h2.07l0.83-1.092-0.83,2.185,1.24,1.092,0.83,0.546h3.74l4.56,2.183,0.83,1.093-0.83,1.092,0.41,1.639,1.66,2.729v0.546l1.25,1.093,1.24,0.546,2.08,2.729-2.08,1.637-0.41,3.276h-0.83l-1.25.546-0.83,1.638-1.65,1.091v1.637l-0.84,3.275v1.637l0.42,1.092-0.42.545v1.092l-2.07,1.637-0.41,1.636,0.41,1.092,1.25,0.545,0.41,1.091,2.9,2.182-2.49-.545-1.24-1.091h-0.83V353.2l0.83,1.091h-0.41l0.41,1.091-0.41,2.182,0.41,1.092,1.24-1.092,0.84,2.182,1.65,1.09,0.83,1.637,1.25,0.545,3.32,0.545-0.42-.545,0.42-.545,0.83-.546,1.66,1.091-0.42.545V365.2h0l-0.42-.546h-0.82l0.82,1.091-0.82.545,0.41,1.636-0.41.546,1.66,0.545v1.091h0.82l0.42,1.636-1.66,1.09,1.66,0.546-0.42,1.089-1.66-1.635-2.07-.545,0.83,1.635h1.24l0.42,1.636,0.42,0.545-0.42,6,1.24,3.271,3.32-1.09h1.25l-1.25,1.09,2.91,1.636,0.41-.545h0.42l-0.42.545v0.544l-4.98,2.725h-2.07l-0.41,2.18-1.66.545v1.09l-0.42.545-1.24.545-1.66-1.635-0.83.545,0.41,0.545h1.25v1.09l-0.42,1.089h0.42l-2.91,2.18,0.83,0.545v0.544h0.83V397.91h1.25v2.179l-0.42,1.09h0.42l-0.83,1.635,0.83,0.545-0.42.544,1.66,0.545-1.24,1.635-2.49,2.178-0.42,2.179,1.66,1.09,1.66,1.633h2.49l-0.83,3.813,3.73,0.545-0.41,2.723h1.24l-0.83,5.445h-0.41v1.088h-0.83l-0.41,2.723h3.31v2.177l5.39-2.177,0.42,3.266,2.9-1.089h0.83l0.42,0.545h-0.42l2.08,0.544v2.178h0.82l-0.41,1.633h1.66v1.088h0.83v1.088l1.66,2.722-0.42,1.088h2.08v0.544l0.41-.544v1.089h-0.41v-0.545l-4.15,2.722-2.49,4.352-1.24-.543-3.73,5.984-0.42.545h0.42l-1.25,2.175h-0.41l-1.25,2.176v-0.544l-12.03,15.772-2.49-.543v3.263l-0.83,1.087-0.82-.544-1.66,1.087-0.83,1.631,0.83,1.087-2.08,1.632h-0.41l-2.91,3.8-2.48-.544v0.544l-0.83-2.718h-0.42v-0.544l-0.41.544v1.631l-1.66.543v-1.631h-0.83l1.24-2.175v-2.718h0.83l-0.41-2.717-1.25-1.089-0.41-2.174h0.41l-0.83-1.632v-1.087l-2.07.543-2.49-.543v0.543l-3.32.544v1.088l-2.49.544v-0.544h-0.83v-0.545h-1.24v0.545h-0.42l-0.82-1.632h-3.74v0.544h-1.24v4.35h-0.42l-0.41,1.088-4.56-1.088-2.08,1.088-0.83-.543,0.42-2.72-1.66-1.632v-1.63l-0.83-.544,0.42-1.088-1.66-1.087V471.4h-2.08l-1.24-2.719-0.83.543h-0.42v1.087l-1.24-1.087-2.91-.543v0.543l-2.48-.543,0.41-2.176h-2.49l0.42-1.088v-1.632l-1.25,1.088h-2.49l-2.07,1.087-0.41-1.087h-1.66l-0.42.544V464.87l-2.49.544-1.66-1.087,0.84,2.718,0.41,0.544,0.41,2.176-2.07,3.262h-4.56l-0.42.544V475.2h-1.24v-0.544h-4.98v-1.632h-1.24v-0.543l-2.08-.544-1.66.544h-1.65l-2.49-1.632-1.66-1.631V464.87l-1.66-1.088-0.42-1.087-3.31-.545-0.83-.544v-0.543l-2.08-1.632-0.41.543-1.25-1.088h-1.24l-0.83,1.088-0.41-.543-1.25.543-0.828-.543,0.414-2.721-0.414-1.088,0.414-.544L998.5,453.99l0.415-1.089L998.5,451.27l-1.66-.544-0.414-.545,0.829-.543,0.414-1.633,1.246-.544,0.828-2.721,1.25-.544,0.41-1.089v-0.544l-2.074-1.633-0.829-1.088-0.414-.543-0.417-.546h-1.243l-0.414-1.088-1.246-2.177,0.414-1.633-1.242-1.089-1.66,2.178h-2.489l-1.66-1.089-0.828.543-2.074.546-1.243-1.089-2.489-1.089-0.416-1.089h-0.415l-1.243.545-1.245-.545-0.415-.544-1.245,1.089-2.489-2.178H973.2l-1.243.545-0.832-1.089-1.657,1.089-0.416-.545-1.658.545-0.417.544,0.417,1.633h-2.074l-2.489,1.632V433.31h0.829l0.829-1.088-0.414-1.089,0.414-1.089v-1.089l0.417-1.088-0.831-.545v-1.088l-0.415-.545-0.829-1.634,0.829-.545,1.246-3.266-2.489-1.635-1.245.545v-1.089l-1.66,1.089-0.414.545-2.9.545v-2.723l1.66-1.635-0.831-.545h1.659l1.246,0.545,0.414-.545-0.831-.543h0.831l0.414-.545-1.245-1.09-0.829-1.633h-2.074l-1.243-1.09h-0.831L953.7,409.9v-0.545l-2.488-2.179h-0.829l-1.245-2.179-2.074-1.09-1.243-.544-0.417-.545h-1.243l-3.317-1.09-4.563,1.09-1.245,1.089-1.66.545,0.417-2.179h-0.832l0.415-1.635h-0.829v-0.545h-0.828l-0.415-.544Z" transform="translate(-562.031 -24)"/>
  <path id="形状_1_拷贝_2" data-name="形状 1 拷贝 2" class="cls-1" d="M1327.82,409.351v2.179l0.83,1.633h1.66l0.82-1.089,1.25,0.545,0.83-.545,2.49,0.545,0.41,1.634,1.25,0.545,0.41,1.088,0.83,2.723h1.25l0.82,0.545-0.41,1.633,0.41,0.546v1.633l0.84,3.268,0.41,1.633,1.66,2.177-0.42,1.089,0.83,0.544h2.49l0.83,0.545,1.66,0.544,0.41,0.544-0.41,1.634-0.41.544-0.83,1.632,0.83,1.633-0.42,1.634v1.088l1.24,2.177-0.41,3.265,4.56,3.264h1.25l0.83,1.633,1.65,1.633v1.631l0.42,0.544v1.088l-0.42.544v1.088l-0.41.544v1.632l0.83,1.088,0.42,1.632,3.31-.543,0.42,1.087,2.07-.544,0.83-.543h1.25l0.82-1.632,0.42,0.543v-1.632h2.9l1.25-.543,0.83-1.633,1.24-.544,1.25,2.177v2.175l0.83,2.721v4.351l0.82,1.63-0.41,1.632,0.83,1.087v1.087l1.24,1.632-0.83,5.437,1.25,2.175,0.83,3.262v1.087h1.24l1.25,1.631,0.41,1.63,1.66-.543,2.49-1.631h2.49l0.83-.543,1.24,1.087,0.83-.544,0.83,1.087,1.25,0.544h0.82l1.66,1.631,2.08-.544,0.83,1.087,0.41,0.544v1.086l0.42,1.087-2.49.543h-2.49l-0.83,1.087h-0.83l-0.42.544,0.84,1.087-0.42,2.716h1.24v1.088l0.42,1.087h0.83l0.41-.544h0.83l0.83,1.086,1.66,0.543V505.1l-1.24.543-1.25-.543-2.07,1.087,0.41-.544V505.1l-0.41-.544-0.42.544-0.82,1.631v1.086l0.41,0.543V508.9l0.41,1.085h1.66v0.544l-0.41.543-0.42,1.087,0.42,1.63h1.66l0.41-1.087,0.83-.543,0.83,0.543v0.544l2.08-2.174,0.82,1.087h0.83l1.25,1.63,1.24,0.542-0.41.544-0.83.543v1.086l-1.66-.544-2.07,2.174-2.08,1.085,1.25,1.087-0.42.543h-3.32l-0.41-.543-0.83.543-0.83-1.086,0.83,2.173-0.42.542-0.82-.542-1.25-1.63h-2.07l-0.42.543-0.83.543v0.544l-0.41.542v-0.542l-0.42-.544v1.086h-1.24l0.41-1.086h0.83l-0.83-.543,0.42-.543-0.83-.543v1.086l-0.83.543v0.544h0.41v0.542l-0.41.544-1.25-1.086h-2.9l-0.41,1.086,0.83,0.543v1.086l2.07,2.715V529l1.24,2.172-0.41.543h-0.83l-0.41.543-2.08,2.171-0.83,1.086h2.08l-0.83,1.086-0.83.543-0.42.543h2.91l-0.42,2.17-0.41,1.086-0.42-1.086h-0.83l-1.24,2.716-0.83.542-1.25.542-2.07-.542-0.83.542-2.9.543v-1.627l-0.83-.544h-0.83l-1.25-2.172-2.07,1.63-1.66-.544-0.41-.542-0.83.542-2.08,1.086v2.714l-0.41.543-0.42,1.629-0.83,1.627-2.49,2.171v1.628h-0.41l-0.83-.542h-0.83l-1.24-1.086h-1.66l-0.83.542-0.83,1.628h-0.83l-0.41,1.628-1.25.542,0.41,2.714-1.24,1.627-1.66-.542-0.41-1.085-0.83-1.628-2.91-1.086-2.07.544v-1.086h-0.83v-0.542l-1.66-.542-1.66,2.17-1.66-.544-1.66,1.086-0.83,2.17-2.9,2.171-0.41,2.17-1.66,1.085,0.41,1.084-0.41,1.086-2.49-1.086h-2.9v3.255l1.24,1.084V569.7l-0.42.542,0.83,0.542-1.65.543-0.83,1.084h-0.83l-1.66,1.627v1.627h2.07l-0.41,1.084-0.83,1.086v1.627l-2.08.542-0.83,1.084-0.41-.542,0.41-1.084-2.07-.542-0.83-1.085-0.41-2.17-0.83-2.169v-0.542l0.41-.543-2.07-1.627v1.085l-1.66,1.627,0.41,1.084,1.66,1.085v0.542l-0.83.542v1.628l-1.66,1.085v-0.542l-2.07-.543v-0.542h-0.83l-0.41-.542-1.25-.544-2.07-1.084v0.542l-1.25-.542-2.07-1.085,1.66,1.627-1.66,3.255-3.73,2.169h-2.08l-1.66,1.083h-1.66l-2.9-1.083L1285.93,580l-2.49-2.169-0.83,1.085-1.25-1.085-3.31.542-1.25-1.084,0.42-.544-1.25,1.086,0.83-1.628-1.24-.542-1.25.542-0.41.542h-4.98V580h-0.83l-0.41,2.169h-0.83V580l-3.73.542h-0.84l0.42,2.168-2.9.542,0.41,0.543h-1.24l-0.42,1.084-2.49-.542v1.084l-1.24-.542v2.711h0.83l-0.42,1.085-0.83.542v0.542l-2.9.541-0.41-.541-2.08,1.083-2.49,3.795-2.48,2.169,0.82,2.71h-2.07l0.41,2.168h-1.24l-0.41-1.627-1.25.542v0.542h-1.66v-1.084h-1.24v1.084l-4.56.543v-1.627l-3.32-2.168-2.91-1.083h-3.31l-2.91,1.083-0.83-1.083,0.42-.542V594.1h0.83v-0.542h-0.42l-0.83-2.168-1.65.542-0.42-2.168h-0.83v-4.338h-0.83l0.42-1.626h0l0.41-1.085,1.66,0.542,0.41-1.083,1.25,0.541v0.542h1.24l-0.83-1.083,0.83-.542,2.49,0.542,0.83-3.253h0.83l0.42-2.171,0.82-2.169h-0.82l0.82-1.084h-1.24l-0.41-.542-0.83,1.084h-0.83l-1.25-1.084h2.91l-0.42-2.712-1.24-1.628h1.66v-1.627l-0.83.543V565.9l-2.08-.544v-0.542l-0.83-.542v-0.542l0.83,0.542v-0.542l-2.9-1.628,0.83-.543,0.41-1.084h0.83l1.25-3.8-1.66-1.628-1.25-2.712,0.83-3.256-2.48-1.628,1.24-1.086v-3.8l0.83-2.172,1.24-1.628,0.42-1.629,1.66-3.258-2.49-2.714-1.66-3.8-2.9-4.888,0.41-1.629h-2.07v0.543h-2.49v-1.629h-1.66l-0.83-2.173v-2.715h1.66V512.7l-1.25-1.63-1.24-.543h-1.24v1.087h-0.42l-0.41-2.173-0.83.542-0.42-.542,0.42-.543-0.83-1.631-0.83-1.63v-1.087l-0.83-1.629-0.83-1.631V500.75l2.07-.544,1.66,1.087,0.83-1.087-0.41-1.629,0.41-1.087-0.41-.544,0.41-.543v-1.087l0.42-1.63-1.25-1.087-0.41-1.087-0.83-.544,0.83-1.63h2.07l0.42-.544h0.41l0.83-.543,0.41-1.087,2.08-.544,0.83,0.544,1.24,1.63h1.25l2.49-2.718v-0.543l1.24-.544,0.41-.543,2.08-2.175,0.41-1.088,0.42-1.63-1.66-1.632-1.25-1.088-3.31,1.088L1215,476.29l-1.66-1.087-1.24-1.089-0.42-1.087,2.08-2.719h0.41l1.66-2.175,0.83-.544V466.5l2.07-1.632,1.25-.543,0.83-1.089-0.42-1.632,1.66-1.632h1.66l2.08-1.632h3.31l-0.41-.544h0.83l-0.83-1.088,0.83-.543,0.41,0.543,0.42-1.088,0.41,1.088,0.42-.543h2.07l0.42-1.089h0.83V452.9h-0.83v-1.087l0.41-.544,0.83-1.089,0.83-.543,0.41-1.633,1.25-.544-0.42-2.177-0.83-1.088-0.41-1.089v-2.72l1.24-.545,0.83-3.265,1.25-.545,0.41-2.177,0.83-.545,0.83-1.088,0.83-1.633,2.49-.545,2.07,0.545,0.83-.545h1.66l0.42-1.089h3.31l0.42-.545,1.24,0.545,1.25,2.178,1.66-.544h0.83l1.24-2.179,1.25-1.088h2.9v-1.088l1.66-1.635h0.83l2.9-1.089,1.25-1.088,0.41-1.089,1.66-.546,0.41-1.633,1.25-1.089,1.66-.544,0.83,1.088,2.9,1.09,0.42,1.088,0.82,0.546,0.83-.546,1.25,0.546,0.83-.546,2.49-.543,1.24-1.635h1.24l0.84-1.088,3.73-1.09,0.41-1.09h0.83l0.83-1.633v-1.089l2.9-.545V410.44l0.83,1.09v-0.545h0.42l-0.42-1.089h0.42l4.56,1.634,0.83-.545L1305,409.9l0.84,0.544,2.07-1.089,0.83,0.545,1.24-1.09-0.41-.545h1.66l3.73,0.545h1.66l2.9,1.634h2.91l2.9-2.179,1.66,1.09h0.83Z" transform="translate(-562.031 -24)"/>
  <path id="形状_1_拷贝" data-name="形状 1 拷贝" class="cls-2" d="M1184.72,171.1l0.83,1.645,2.91,0.547,0.41,0.549-0.41,2.74-0.42.549,0.42,2.193-0.42,2.19v0.55l-0.83-1.1h-0.83l0.42,1.644h1.24l1.66,2.192h2.49l7.05,1.644L1200.9,187v0.548l-1.24,1.1v0.548l2.48,7.122-0.82,1.644h-1.25V198.5l1.25,3.287v1.1h2.07l1.66,1.642,0.41,0.548,2.08,0.548,0.41,1.643V210l0.42,1.095,3.73,3.285h1.66l0.41,1.1,1.66,0.549v1.095l1.24,0.547,1.66,2.19-0.82,2.737h0l1.24,0.548,0.41,1.095,3.32,0.547,0.42,1.094,0.83,0.547,3.32-.547,1.24,1.642,5.39,2.19,1.25,1.095,2.9,0.546,2.49-1.094,0.41,0.548h3.32l1.66,1.641,1.66-1.641,0.41-1.642,2.08-.548,1.24-1.095,4.56,0.548,1.25-1.095h2.49l1.24,0.547,2.49-.547,1.66,1.095,2.07-1.643,2.07,0.548,3.32-1.643,0.42-.546,2.9-.547,1.25-.547h1.24l1.25-.548,0.41,0.548,0.41,1.64,1.25,1.095v0.548l0.41,1.095,2.08-.548h2.9l1.66,1.095h1.24l1.25,1.095h1.66l2.9-1.095,1.66,1.095,2.49,0.547,0.83-1.094h0.83l0.83-1.095,1.24,0.547h0.83l3.32,3.284,1.66-.548,0.41-1.641,0.42-.547,0.83,1.094,3.31-.547,1.66,1.095,2.49-.548,1.25,0.548h0.83l1.24,1.641h2.9l0.42,1.095,6.22,3.284,0.83,2.188,2.9,2.189,6.23-1.641,1.24-1.095h0.83l2.9,2.736,2.08,3.283,2.07,1.094,0.42,0.547-0.42,1.094,0.42,0.548,1.24,0.547,2.07,1.641,11.2,1.093h1.24l0.84,0.548,1.24-.548,2.49-1.093,2.07-.548,1.25-1.093h0.83l0.41-.547-0.41-1.642,0.82-1.095,1.25-1.093,0.41-1.095,7.47-.546,2.07-1.095,1.25-.548,1.66-1.641,2.9,0.548,2.49-1.643,1.24-1.093,2.08,0.547,0.83-.547h1.24l5.39-1.643,1.66,0.548,2.08-.548,1.24,1.095h2.07l2.91,2.189,1.66-1.641,1.24,1.093v1.643l0.83,1.641h1.66l0.83-.548h2.49v0.548h2.07l3.32,1.641,1.66-.546,0.83-.548h0.82l0.84-.547,2.07-.548,0.41-1.093,1.25,1.093,4.56,1.643,1.66,1.641,0.41,0.547,0.83,0.546,2.91,2.737,2.07,2.188v2.735l-1.66.546-3.32,1.095,1.25,3.281-1.25,1.641-0.83,1.093,0.42,1.094v1.641l-0.42.546h-4.14l-2.08,1.641-0.41-1.093h-2.9l-1.25-2.735,0.42-2.187-1.66-.548-0.42-1.64-1.66-1.093v0.546h-1.24l-1.25-1.093,0.84-.548v-0.546h-4.15l-2.08.546,0.42,0.548,2.9,1.093v0.547l-1.24-.547-0.83,1.094,0.83,2.734h-0.42l-0.41,1.094,0.41,1.641-0.41,2.733-1.66,1.094,0.41,1.094v0.547l-2.9-.547-0.41,1.093-0.84.548h-3.31l0.41-1.094-1.24-.547,1.24-.546-1.66-1.642,0.42-1.093-0.42-1.094,0.42-.546-0.83-.548h-0.83l-1.66,1.642-0.42,3.281,1.66,2.733v2.733l-0.41.548-1.66,1.092-1.25,3.281-0.82.546v1.094l-0.83,1.64,0.83,2.186,1.24,1.092,0.42,2.186,1.24,1.094-0.42,1.639,1.25,4.917,1.24,0.547,1.66,0.546v2.185l-3.73,3.825-1.66-.546-0.83-.546-0.83.546-0.83-1.093h-1.66l-1.66-1.64-0.83,1.094-0.41,1.639-3.32,1.638-1.24,1.639-0.42,1.639h-0.83l-0.41-.547h-1.25l-0.83-1.092h-1.66l-0.82-1.093V301.89h-1.25l-0.41-.546,0.41-.546h-1.24v-1.093l-1.25-.546-0.41-1.64h-1.66l-2.49-1.092v-0.546h-1.24l-0.83-1.093-0.42-1.093-0.83,1.093-0.83-.547h-1.24l-2.9,1.64-0.83,1.092-2.08.546-1.66-1.638-2.9,1.092v-0.546l-0.41-.546h-1.25l-0.41.546h-0.83l-2.08,2.184-0.83.548-0.41,1.093-1.66,1.092-0.42,1.092-0.83-.546-1.66,1.092-2.9.546-3.31,2.732h-1.25l-0.83-.546-2.07.546-1.66,1.093-2.49,2.731-1.24,1.092h-0.84l-0.82,1.092-1.25.546V313.9l0.42,0.546v1.639l-0.83.546-0.42.546,2.08,2.185,0.82,2.73,0.42,2.183,1.24,1.638,1.25,3.276,1.24,1.091-0.41,2.183h-1.25l-2.07-1.091-3.32,1.638-1.24-1.638-2.08-1.092-0.83.546-0.41,1.091h-1.24l-1.66,1.639-2.08-.546-2.9-1.093-2.08,1.093-0.41,2.728h0.83l-2.49,3.82v2.184l1.66,1.091h2.07l4.57,7.093-0.83,1.636V353.2l0.83,1.636,1.65,1.637,2.08,0.545-0.42,2.182h-0.41l-0.83,1.091,1.24,3.272,1.66,1.091h1.66l1.25,1.636,2.49,1.091v2.727l2.48,1.636,2.08,0.545h0.41l-1.24,1.091-1.25,2.18-2.9,2.726-0.41,1.636-1.66.545-1.25,2.725-0.83-.545-0.83,1.635-2.48,1.636,0.41,1.634,0.41,0.545v1.635l0.83,2.181-0.83,1.634,0.42,1.635,1.24,1.634,0.42,2.18h-1.66l-0.42,2.179-3.31,2.18-0.42,1.634v0.545l-0.41,1.09,0.41,0.544-1.24,2.179h-0.83l-1.66-1.09-2.9,2.179h-2.91l-2.9-1.634h-1.66l-3.73-.545h-1.66l0.41,0.545-1.24,1.09-0.83-.545-2.07,1.089L1305,409.9l-0.41,1.089-0.83.545-4.56-1.634h-0.42l0.42,1.089h-0.42v0.545l-0.83-1.09v1.634l-2.9.545v1.089l-0.83,1.633h-0.83l-0.41,1.09-3.73,1.09-0.84,1.088h-1.24l-1.24,1.635-2.49.543-0.83.546-1.25-.546-0.83.546-0.82-.546-0.42-1.088-2.9-1.09-0.83-1.088-1.66.544-1.25,1.089-0.41,1.633-1.66.546-0.41,1.089-1.25,1.088-2.9,1.089h-0.83l-1.66,1.635v1.088h-2.9l-1.25,1.088-1.24,2.179h-0.83l-1.66.544-1.25-2.178-1.24-.545-0.42.545h-3.31l-0.42,1.089h-1.66l-0.83.545-2.07-.545-2.49.545-0.83,1.633-0.83,1.088-0.83.545-0.41,2.177-1.25.545-0.83,3.265-1.24.545v2.72l0.41,1.089,0.83,1.088,0.42,2.177-1.25.544-0.41,1.633-0.83.543-0.83,1.089-0.41.544V452.9h0.83v2.177h-0.83l-0.42,1.089h-2.07l-0.42.543-0.41-1.088-0.42,1.088-0.41-.543-0.83.543,0.83,1.088h-0.83l0.41,0.544h-3.31l-2.08,1.632h-1.66l-1.66,1.632,0.42,1.632-0.83,1.089-1.25.543-2.07,1.632v1.087l-0.83.544-1.66,2.175h-0.41l-2.08,2.719,0.42,1.087,1.24,1.089,1.66,1.087,1.25,1.631,3.31-1.088,2.08,1.633,0.83,1.087-0.83,2.718-2.08,2.175-0.41.543-1.24.544v0.543l-2.49,2.718h-1.25l-1.24-1.63h-2.91l-0.41,1.087-1.24.543-0.83.544h-1.66l-0.83,1.087-1.66-.544-1.25,1.631-0.82.544-0.42.543v1.63l-0.83,1.63-3.32-1.087-0.83,1.087-2.07-1.087-0.42-1.086-0.41-2.718h-2.49l-0.83-1.087-2.07-.543v-1.087h0.83l0.41-1.087,2.07-.544-0.41-.544-0.41-.543-2.49-.544-0.83-3.262-0.83-.544-0.83-1.63-0.83-1.087V476.29l-2.07-2.176v-1.087l-0.42-1.63-1.24-.545-1.25-1.631,0.42-1.088V466.5l0.41-.545-0.83-1.087-1.24-3.264v-4.9h-4.98l-0.83-1.088-1.66-4.9,0.42-1.088-1.66-3.266-0.83-1.088-4.98.545-1.24.543-0.83,1.089-1.66,1.633,0.83,2.176v0.544l-1.25.544-0.41,2.72-0.83,1.632v2.721l-2.9,1.087,1.66,0.545v0.543h0l-1.25-.543h-2.9v-0.545l-0.83-.544,0.41-2.72h-0.41v2.177l-1.66-.545v-0.544l-2.07-1.088-1.25,1.088-1.66-.544v0.544l-0.41.544-1.25-1.088-0.41-1.631h-0.42l-0.41,3.264v0.543h0.41l-0.41,1.632H1142l-0.41,1.632-0.83-.543v2.175h-0.42V466.5l-3.73,2.176-0.83,1.63-1.24-.543,0.83-1.087-0.83-.545-0.83,1.088h-0.83l-0.42.544h-0.41l0.41-.544-0.82-.543v-1.089h0l-0.42.544-2.49-2.176v-0.543l-5.39-2.176-0.41.544h-0.42l0.42-1.087h-0.42l-0.41.543h-0.42l0.83-2.175-0.83-.545,1.25-2.176h0.41l1.25-2.175h-0.42l0.42-.545,3.73-5.984,1.24,0.543,2.49-4.352,4.15-2.722v0.545h0.41v-1.089h-2.49l0.42-1.088-1.66-2.722v-1.088h-0.83v-1.088h-1.66l0.41-1.633h-0.82v-2.178l-2.08-.544h0.42l-0.42-.545h-0.83l-2.9,1.089-0.42-3.266-5.39,2.177V429.5h-3.31l0.41-2.723h0.83v-1.088h0.41l0.83-5.445h-1.24l0.41-2.723-3.73-.545,0.83-3.813h-2.49l-1.66-1.633-1.66-1.09,0.42-2.179,2.49-2.178,1.24-1.635-1.66-.545,0.42-.544-0.83-.545,0.83-1.635h-0.42l0.42-1.09V397.91h-1.25v2.179h-0.83v-0.544l-0.83-.545,2.91-2.18h-0.42l0.42-1.089v-1.09h-1.25l-0.41-.545,0.83-.545,1.66,1.635,1.24-.545,0.42-.545v-1.09l1.66-.545,0.41-2.18h2.07l4.98-2.725v-0.544l0.42-.545h-0.42l-0.41.545-2.91-1.636,1.25-1.09h-1.25l-3.32,1.09-1.24-3.271,0.42-6-0.42-.545-0.42-1.636h-1.24l-0.83-1.635,2.07,0.545,1.66,1.635,0.42-1.089-1.66-.546,1.66-1.09-0.42-1.636h-0.82v-1.091l-1.66-.545,0.41-.546-0.41-1.636,0.82-.545-0.82-1.091h0.82l0.42,0.546h0v-1.637l0.42-.545-1.66-1.091-0.83.546-0.42.545,0.42,0.545-3.32-.545-1.25-.545-0.83-1.637-1.65-1.09-0.84-2.182-1.24,1.092-0.41-1.092,0.41-2.182-0.41-1.091h0.41l-0.83-1.091v-3.273h0.83l1.24,1.091,2.49,0.545-2.9-2.182-0.41-1.091-1.25-.545-0.41-1.092,0.41-1.636,2.07-1.637v-1.092l0.42-.545-0.42-1.092v-1.637l0.84-3.275v-1.637l1.65-1.091,0.83-1.638,1.25-.546h0.83l0.41-3.276,2.08-1.637-2.08-2.729-1.24-.546-1.25-1.093V321l-1.66-2.729-0.41-1.639,0.83-1.092-0.83-1.093-0.83-.546-1.24-.546-2.49-1.091h-3.74l-0.83-.546-1.24-1.092,0.83-2.185-0.83,1.092h-2.07l-1.25.547v1.092l-0.83.546-0.41-.546-0.42-.546,0.83-1.639h0.83l-0.41-.546V307.9h1.24l0.83-.546,3.73,0.546-1.24-2.185,0.41-1.093,2.49-1.093h2.49l0.83,0.547,1.25-1.093,1.24,1.093h3.32l0.83-1.093,0.41-1.638,2.08-1.092-0.42-5.464-0.83-.547-0.41-1.092,0.41-1.092-1.66-2.733,1.25-1.093-1.25-1.64,1.25-1.639v-1.093l-0.83-.546h-0.83l-0.83-1.094,1.24-2.186-0.41-1.094-0.83-1.639-1.25-.547-0.41-1.639h-0.83l-0.83-1.64,0.41-.548,0.84-1.093,1.24,0.547h0.83v-1.641l-0.42-1.64h0.42l-1.66-1.093-0.41-1.094,0.41-1.094v-0.546l2.9-2.187,0.42-.548v-1.093l1.24-.546-0.83-1.641,0.42-3.828,0.41-.548-1.24-5.47,0.83-1.64,1.24-1.1-0.41-1.641,0.41-1.093V242.3l-0.41-1.643,0.41-1.641h1.66v-1.095l2.08-1.641h0.82l0.42-1.095v-1.094l0.41-.547,1.25-.547,2.49-.548,2.9-2.189,2.07-.547,0.42-2.19,2.49-1.095,0.83-1.641,2.9-.547,2.07,2.188,2.08-.547,1.24,1.642,1.25-.547,0.41,0.547h1.66l0.83-.547,0.41-1.643V224.24l0.42-1.095L1142,222.05l1.25-1.095v-2.737l0.41-1.095-0.41-1.095,0.41-4.381-0.83-3.286-0.83-.548v-2.19l-0.82-1.1-0.84-3.286-0.41-1.1-0.41-1.1,0.41-.548,0.83-2.738,1.66,1.642,0.41,1.644,1.25,0.547,0.41,0.549,3.32,1.643h2.9l1.25-1.643,1.66-.549h2.07l0.83,1.1,1.25-.548h2.48l0.83-1.1,0.83-1.644,1.25-1.095v-0.547l0.83-.549-0.42-1.095h1.24l-0.41-1.644h-0.83l-0.41-2.191-0.42-1.1-0.41-.548,0.83-1.1h0.41l0.83,0.548,4.15-1.644,0.41-.547,0.42-2.193,2.49-.547,0.41-1.646,0.83-.547,0.42,0.547,2.9-1.1-0.42-1.094-0.82-.549v-1.644l-0.84-1.1,1.25-1.1h0.83v0.547l1.24-.547,0.83-1.1,0.83-1.645,1.66,0.549V173.3h0.83l1.24-.547Z" transform="translate(-562.031 -24)"/>
</svg>
